<svg width="24" height="24" viewBox="0 0 24 24" fill="none" xmlns="http://www.w3.org/2000/svg">
<path d="M23 13H16.4L14.2 16.3H9.8L7.6 13H1" stroke="#6666FF" stroke-width="2" stroke-linecap="round" stroke-linejoin="round"/>
<path d="M4.795 4.221L1 11.8V18.4C1 18.9835 1.23178 19.5431 1.64436 19.9556C2.05695 20.3682 2.61652 20.6 3.2 20.6H20.8C21.3835 20.6 21.9431 20.3682 22.3556 19.9556C22.7682 19.5431 23 18.9835 23 18.4V11.8L19.205 4.221C19.0229 3.85447 18.7421 3.54601 18.3943 3.33031C18.0464 3.11461 17.6453 3.00022 17.236 3H6.764C6.35471 3.00022 5.95359 3.11461 5.60575 3.33031C5.25791 3.54601 4.97713 3.85447 4.795 4.221V4.221Z" stroke="#6666FF" stroke-width="2" stroke-linecap="round" stroke-linejoin="round"/>
</svg>
