<svg width="54" height="34" viewBox="0 0 54 34" fill="none" xmlns="http://www.w3.org/2000/svg">
<path d="M11.7778 31.8499H6.88889C5.59227 31.8499 4.34877 31.3284 3.43192 30.4001C2.51508 29.4718 2 28.2127 2 26.8999V7.0999C2 5.78708 2.51508 4.52803 3.43192 3.59972C4.34877 2.67142 5.59227 2.1499 6.88889 2.1499H14.6867M36.2222 2.1499H41.1111C42.4077 2.1499 43.6512 2.67142 44.5681 3.59972C45.4849 4.52803 46 5.78708 46 7.0999V26.8999C46 28.2127 45.4849 29.4718 44.5681 30.4001C43.6512 31.3284 42.4077 31.8499 41.1111 31.8499H33.3133" stroke="#F6687F" stroke-width="4" stroke-linecap="round" stroke-linejoin="round"/>
<path d="M26.5667 2L16.3 17H31.7L21.4333 32" stroke="#F6687F" stroke-width="4" stroke-linecap="round" stroke-linejoin="round"/>
<path d="M52 19V15" stroke="#F6687F" stroke-width="4" stroke-linecap="round" stroke-linejoin="round"/>
</svg>
