<svg width="40" height="40" viewBox="0 0 40 40" fill="none" xmlns="http://www.w3.org/2000/svg">
<circle cx="20" cy="20" r="20" fill="#BE1A1A"/>
<path fill-rule="evenodd" clip-rule="evenodd" d="M17 9H23C24.1046 9 25 9.89543 25 11V12H28C29.1046 12 30 12.8954 30 14V16C30 17.1046 29.1046 18 28 18H27.9199L27 29C27 30.1046 26.1046 31 25 31H15C13.8954 31 13 30.1046 13.0035 29.083L12.0799 18H12C10.8954 18 10 17.1046 10 16V14C10 12.8954 10.8954 12 12 12H15V11C15 9.89543 15.8954 9 17 9ZM12 14H15H25H28V16H12V14ZM14.0865 18H25.9132L25.0035 28.917L25 29H15L14.0865 18ZM23 11V12H17V11H23Z" fill="white"/>
</svg>
