<svg width="50" height="48" viewBox="0 0 50 48" fill="none" xmlns="http://www.w3.org/2000/svg">
<path d="M16 21.0882L16.0163 34.0013C16.017 34.5531 16.4649 35 17.0167 35C18.5992 35 19.7745 35 22.0176 35M34 21.0882C34 26.116 34.0154 29.2174 34.0174 33.9998C34.0176 34.5521 33.5714 35 33.0191 35C32.0835 35 30.4593 35 28.0176 35M28.0176 35C28.0176 35 28 27.5139 28 26.75M28.0176 35L28 26.75M28 26.75H22.0176M22.0176 26.75C22.0176 26.75 22.0176 32.7083 22.0176 35M22.0176 26.75V35M37 23.6944L25 13C25 13 17.9792 19.2197 13 23.6944" stroke="#B3B3B3" stroke-width="2" stroke-linecap="round" stroke-linejoin="round"/>
</svg>
