<svg width="24" height="20" viewBox="0 0 24 20" fill="none" xmlns="http://www.w3.org/2000/svg">
<path d="M10.1997 1.95728L1.28218 16.017C1.09832 16.3177 1.00104 16.6587 1.00001 17.0059C0.998979 17.3531 1.09424 17.6946 1.27631 17.9963C1.45838 18.2979 1.72092 18.5493 2.0378 18.7254C2.35469 18.9015 2.71487 18.9962 3.08252 19H20.9175C21.2851 18.9962 21.6453 18.9015 21.9622 18.7254C22.2791 18.5493 22.5416 18.2979 22.7237 17.9963C22.9058 17.6946 23.001 17.3531 23 17.0059C22.999 16.6587 22.9017 16.3177 22.7178 16.017L13.8003 1.95728C13.6127 1.66505 13.3484 1.42345 13.033 1.25577C12.7177 1.08809 12.3619 1 12 1C11.6381 1 11.2823 1.08809 10.967 1.25577C10.6516 1.42345 10.3873 1.66505 10.1997 1.95728V1.95728Z" stroke="#6666FF" stroke-width="2" stroke-linecap="round" stroke-linejoin="round"/>
<path d="M12 7V11" stroke="#6666FF" stroke-width="2" stroke-linecap="round" stroke-linejoin="round"/>
<path d="M12 15H12.01" stroke="#6666FF" stroke-width="2" stroke-linecap="round" stroke-linejoin="round"/>
</svg>
