<svg width="15" height="18" viewBox="0 0 15 18" fill="none" xmlns="http://www.w3.org/2000/svg">
<path d="M13.7273 7.77284C13.7273 12.5456 7.59095 16.6365 7.59095 16.6365C7.59095 16.6365 1.45459 12.5456 1.45459 7.77284C1.45459 6.14537 2.1011 4.58456 3.25189 3.43377C4.40268 2.28298 5.96349 1.63647 7.59095 1.63647C9.21842 1.63647 10.7792 2.28298 11.93 3.43377C13.0808 4.58456 13.7273 6.14537 13.7273 7.77284Z" stroke="#6666FF" stroke-width="2" stroke-linecap="round" stroke-linejoin="round"/>
<path d="M7.59086 9.81821C8.72054 9.81821 9.63632 8.90242 9.63632 7.77275C9.63632 6.64308 8.72054 5.72729 7.59086 5.72729C6.46119 5.72729 5.54541 6.64308 5.54541 7.77275C5.54541 8.90242 6.46119 9.81821 7.59086 9.81821Z" stroke="#6666FF" stroke-width="2" stroke-linecap="round" stroke-linejoin="round"/>
</svg>
