<svg width="110" height="73" viewBox="0 0 110 73" fill="none" xmlns="http://www.w3.org/2000/svg">
<path d="M31.4404 43.8128C35.461 43.8128 38.7203 40.5486 38.7203 36.5219C38.7203 32.4953 35.461 29.231 31.4404 29.231C27.4198 29.231 24.1604 32.4953 24.1604 36.5219C24.1604 40.5486 27.4198 43.8128 31.4404 43.8128Z" fill="#6666FF"/>
<path d="M109.396 36.514C109.397 42.3684 107.737 48.1026 104.609 53.0483C101.481 57.9941 97.0139 61.9476 91.7283 64.4481C86.4428 66.9487 80.5564 67.8933 74.7553 67.1718C68.9543 66.4503 63.4774 64.0925 58.9631 60.3731C58.8462 60.2778 58.7313 60.1746 58.6163 60.0814L55.1666 64.1614L47.7202 72.9704V36.514C47.7215 32.7867 46.448 29.1713 44.1118 26.2699C41.7755 23.3684 38.5175 21.3558 34.88 20.5672C31.2425 19.7786 27.4451 20.2615 24.1198 21.9356C20.7946 23.6097 18.1422 26.3739 16.6042 29.7681C15.0662 33.1622 14.7354 36.9816 15.6669 40.5903C16.5983 44.199 18.7358 47.3793 21.7236 49.6018C24.7113 51.8243 28.369 52.9549 32.0878 52.8053C35.8065 52.6558 39.3619 51.2351 42.1621 48.7799V65.487C37.4979 67.2149 32.4858 67.788 27.5528 67.1576C22.6198 66.5272 17.912 64.7119 13.8305 61.8664C9.74904 59.0209 6.41484 55.2295 4.11195 50.8152C1.80907 46.4009 0.605744 41.4945 0.604492 36.514V0L7.9657 8.66611L11.572 12.899C16.0652 9.10843 21.546 6.68209 27.3695 5.90545C33.193 5.12881 39.1168 6.03419 44.4439 8.51505C49.771 10.9959 54.2797 14.949 57.4395 19.9092C60.5993 24.8694 62.2787 30.6303 62.2801 36.514C62.2836 40.3348 63.6274 44.0329 66.0766 46.9624C68.5259 49.8918 71.925 51.8664 75.6801 52.5411C79.4352 53.2158 83.3077 52.5479 86.621 50.6539C89.9344 48.7599 92.4781 45.7602 93.8076 42.179C95.1372 38.5977 95.1682 34.6624 93.8952 31.0606C92.6222 27.4588 90.1262 24.4193 86.8431 22.4732C83.56 20.5271 79.6985 19.798 75.9332 20.4133C72.1679 21.0286 68.7382 22.9492 66.243 25.8396C64.7596 20.9897 62.2799 16.5041 58.9631 12.6707C63.4764 8.95223 68.9518 6.59461 74.7514 5.87254C80.551 5.15047 86.4362 6.09369 91.7212 8.5923C97.0062 11.0909 101.473 15.0421 104.603 19.9854C107.732 24.9288 109.394 30.6609 109.396 36.514Z" fill="#7367F0"/>
<path d="M78.558 23.6646C76.0185 23.6646 73.5361 24.4189 71.4247 25.832C69.3134 27.2452 67.6679 29.2537 66.6965 31.6035C65.725 33.9533 65.4712 36.5389 65.9672 39.0332C66.4632 41.5274 67.6867 43.8184 69.4829 45.6162C71.2792 47.414 73.5674 48.6379 76.0583 49.1331C78.5491 49.6283 81.1307 49.3726 83.4764 48.3982C85.8221 47.4239 87.8265 45.7747 89.2363 43.6593C90.646 41.5438 91.3976 39.0572 91.396 36.514C91.3944 33.1052 90.0411 29.8367 87.6336 27.427C85.2261 25.0174 81.9616 23.6641 78.558 23.6646ZM78.558 43.8128C77.1185 43.8128 75.7113 43.3854 74.5143 42.5846C73.3173 41.7838 72.3842 40.6456 71.8329 39.3138C71.2817 37.9821 71.1371 36.5165 71.4173 35.1024C71.6976 33.6884 72.3902 32.3892 73.4075 31.3693C74.4248 30.3493 75.7212 29.6543 77.1329 29.3721C78.5445 29.0899 80.008 29.2331 81.3384 29.7837C82.6688 30.3343 83.8063 31.2676 84.6072 32.4655C85.4081 33.6635 85.8364 35.0723 85.8379 36.514C85.8442 37.4736 85.6603 38.4249 85.2968 39.3127C84.9333 40.2006 84.3974 41.0074 83.7202 41.6863C83.0431 42.3652 82.2381 42.9028 81.352 43.2678C80.4658 43.6328 79.5161 43.8181 78.558 43.8128Z" fill="#6666FF"/>
</svg>
