<svg width="39" height="26" viewBox="0 0 39 26" fill="none" xmlns="http://www.w3.org/2000/svg">
<path d="M24.6454 4.52979H14.3574V21.4672H24.6454V4.52979Z" fill="#FF5F00"/>
<path d="M15.4172 13C15.4159 11.3691 15.7827 9.75921 16.4898 8.29227C17.1969 6.82533 18.2257 5.53974 19.4985 4.53278C17.9221 3.284 16.029 2.50747 14.0354 2.29191C12.0419 2.07636 10.0284 2.43049 8.2251 3.31383C6.42179 4.19717 4.90141 5.57408 3.83772 7.2872C2.77404 9.00031 2.20996 10.9805 2.20996 13.0015C2.20996 15.0224 2.77404 17.0026 3.83772 18.7158C4.90141 20.4289 6.42179 21.8058 8.2251 22.6891C10.0284 23.5725 12.0419 23.9266 14.0354 23.711C16.029 23.4955 17.9221 22.719 19.4985 21.4702C18.2253 20.4629 17.1962 19.1768 16.4891 17.7093C15.782 16.2418 15.4154 14.6314 15.4172 13Z" fill="#EB001B"/>
<path d="M35.7676 19.6752V19.3282H35.916V19.2563H35.5627V19.3282H35.7023V19.6752H35.7676ZM36.4532 19.6752V19.2563H36.3464L36.2217 19.5555L36.097 19.2563H35.9902V19.6752H36.0673V19.3581L36.1831 19.6303H36.2633L36.379 19.3581V19.6752H36.4532Z" fill="#F79E1B"/>
<path d="M36.7887 12.9998C36.7886 15.0209 36.2244 17.0013 35.1605 18.7144C34.0967 20.4276 32.5761 21.8045 30.7725 22.6877C28.969 23.5709 26.9553 23.9248 24.9617 23.709C22.968 23.4931 21.0748 22.7162 19.4985 21.467C20.7708 20.4592 21.7994 19.1732 22.5067 17.7062C23.214 16.2392 23.5815 14.6294 23.5815 12.9983C23.5815 11.3673 23.214 9.75747 22.5067 8.29045C21.7994 6.82343 20.7708 5.53748 19.4985 4.52963C21.0748 3.28046 22.968 2.50355 24.9617 2.28769C26.9553 2.07183 28.969 2.42573 30.7725 3.30895C32.5761 4.19216 34.0967 5.56905 35.1605 7.28222C36.2244 8.99539 36.7886 10.9757 36.7887 12.9968V12.9998Z" fill="#F79E1B"/>
</svg>
