<svg width="48" height="48" viewBox="0 0 48 48" fill="none" xmlns="http://www.w3.org/2000/svg">
<path d="M31.3333 20.2C31.3333 18.2904 30.5607 16.4591 29.1855 15.1088C27.8102 13.7586 25.9449 13 24 13C22.0551 13 20.1898 13.7586 18.8146 15.1088C17.4393 16.4591 16.6667 18.2904 16.6667 20.2C16.6667 28.6 13 31 13 31H35C35 31 31.3333 28.6 31.3333 20.2Z" stroke="#B3B3B3" stroke-width="2" stroke-linecap="round" stroke-linejoin="round"/>
<path d="M26 34C25.7968 34.3042 25.505 34.5566 25.154 34.7321C24.803 34.9076 24.4051 35 24 35C23.5949 35 23.197 34.9076 22.846 34.7321C22.495 34.5566 22.2032 34.3042 22 34" stroke="#B3B3B3" stroke-width="2" stroke-linecap="round" stroke-linejoin="round"/>
</svg>
