<svg width="52" height="52" viewBox="0 0 52 52" fill="none" xmlns="http://www.w3.org/2000/svg">
<path d="M39 17.3333C39 13.8854 37.6304 10.5788 35.1924 8.14086C32.7544 5.70289 29.4478 4.33325 26 4.33325C22.5522 4.33325 19.2456 5.70289 16.8076 8.14086C14.3696 10.5788 13 13.8854 13 17.3333C13 32.4999 6.5 36.8333 6.5 36.8333H45.5C45.5 36.8333 39 32.4999 39 17.3333Z" stroke="#B3B3B3" stroke-width="3" stroke-linecap="round" stroke-linejoin="round"/>
<path d="M29.7484 45.5C29.3675 46.1567 28.8207 46.7017 28.1629 47.0806C27.505 47.4596 26.7592 47.659 26 47.659C25.2409 47.659 24.4951 47.4596 23.8372 47.0806C23.1794 46.7017 22.6326 46.1567 22.2517 45.5" stroke="#B3B3B3" stroke-width="3" stroke-linecap="round" stroke-linejoin="round"/>
</svg>
