<svg width="32" height="22" viewBox="0 0 32 22" fill="none" xmlns="http://www.w3.org/2000/svg">
<path fill-rule="evenodd" clip-rule="evenodd" d="M19 2H13C10.7909 2 9 3.79086 9 6V16C9 18.2091 10.7909 20 13 20H19C21.2078 20 22.9979 18.2113 23 16.0039L23 16L23 10V8L23 6C23 3.79086 21.2091 2 19 2ZM19 22C21.2208 22 23.1599 20.7934 24.1973 19H25H30C31.1046 19 32 18.1046 32 17V10C32 8.89543 31.1046 8 30 8H25L25 6C25 2.68629 22.3137 0 19 0H13C9.68629 0 7 2.68629 7 6L7 8H2C0.895431 8 0 8.89543 0 10V17C0 18.1046 0.895431 19 2 19H7H7.8027C8.84012 20.7934 10.7792 22 13 22H19ZM25 16L25 10H30V17H25V16.0048L25 16ZM2 10H7V17H2V10ZM12 8C11.4477 8 11 8.44772 11 9V17C11 17.5523 11.4477 18 12 18C12.5523 18 13 17.5523 13 17V9C13 8.44771 12.5523 8 12 8Z" fill="#909090"/>
</svg>
