<svg width="32" height="32" viewBox="0 0 32 32" fill="none" xmlns="http://www.w3.org/2000/svg">
<path d="M13.545 4.38274L1.38479 24.6913C1.13407 25.1256 1.00142 25.6181 1.00001 26.1196C0.998607 26.6212 1.12851 27.1144 1.37679 27.5501C1.62507 27.9859 1.98307 28.349 2.41519 28.6034C2.8473 28.8577 3.33846 28.9945 3.8398 29H28.1602C28.6615 28.9945 29.1527 28.8577 29.5848 28.6034C30.0169 28.349 30.3749 27.9859 30.6232 27.5501C30.8715 27.1144 31.0014 26.6212 31 26.1196C30.9986 25.6181 30.8659 25.1256 30.6152 24.6913L18.455 4.38274C18.1991 3.96063 17.8387 3.61164 17.4087 3.36944C16.9787 3.12724 16.4935 3 16 3C15.5065 3 15.0213 3.12724 14.5913 3.36944C14.1613 3.61164 13.8009 3.96063 13.545 4.38274V4.38274Z" stroke="#909090" stroke-width="2" stroke-linecap="round" stroke-linejoin="round"/>
<path d="M16 12V19" stroke="#909090" stroke-width="2" stroke-linecap="round" stroke-linejoin="round"/>
<path d="M16 23H16.0133" stroke="#909090" stroke-width="2" stroke-linecap="round" stroke-linejoin="round"/>
</svg>
