<svg width="214" height="120" viewBox="0 0 214 120" fill="none" xmlns="http://www.w3.org/2000/svg">
<path d="M83.4404 43.8128C87.461 43.8128 90.7203 40.5486 90.7203 36.5219C90.7203 32.4953 87.461 29.231 83.4404 29.231C79.4198 29.231 76.1604 32.4953 76.1604 36.5219C76.1604 40.5486 79.4198 43.8128 83.4404 43.8128Z" fill="#6666FF"/>
<path d="M161.396 36.514C161.397 42.3684 159.737 48.1026 156.609 53.0483C153.481 57.9941 149.014 61.9476 143.728 64.4481C138.443 66.9487 132.556 67.8933 126.755 67.1718C120.954 66.4503 115.477 64.0925 110.963 60.3731C110.846 60.2778 110.731 60.1746 110.616 60.0814L107.167 64.1614L99.7202 72.9704V36.514C99.7215 32.7867 98.448 29.1713 96.1118 26.2699C93.7755 23.3684 90.5175 21.3558 86.88 20.5672C83.2425 19.7786 79.4451 20.2615 76.1198 21.9356C72.7946 23.6097 70.1422 26.3739 68.6042 29.7681C67.0662 33.1622 66.7354 36.9816 67.6669 40.5903C68.5983 44.199 70.7358 47.3793 73.7236 49.6018C76.7113 51.8243 80.369 52.9549 84.0878 52.8053C87.8065 52.6558 91.3619 51.2351 94.1621 48.7799V65.487C89.4979 67.2149 84.4858 67.788 79.5528 67.1576C74.6198 66.5272 69.912 64.7119 65.8305 61.8664C61.749 59.0209 58.4148 55.2295 56.112 50.8152C53.8091 46.4009 52.6057 41.4945 52.6045 36.514V0L59.9657 8.66611L63.572 12.899C68.0652 9.10843 73.546 6.68209 79.3695 5.90545C85.193 5.12881 91.1168 6.03419 96.4439 8.51505C101.771 10.9959 106.28 14.949 109.439 19.9092C112.599 24.8694 114.279 30.6303 114.28 36.514C114.284 40.3348 115.627 44.0329 118.077 46.9624C120.526 49.8918 123.925 51.8664 127.68 52.5411C131.435 53.2158 135.308 52.5479 138.621 50.6539C141.934 48.7599 144.478 45.7602 145.808 42.179C147.137 38.5977 147.168 34.6624 145.895 31.0606C144.622 27.4588 142.126 24.4193 138.843 22.4732C135.56 20.5271 131.699 19.798 127.933 20.4133C124.168 21.0286 120.738 22.9492 118.243 25.8396C116.76 20.9897 114.28 16.5041 110.963 12.6707C115.476 8.95223 120.952 6.59461 126.751 5.87254C132.551 5.15047 138.436 6.09369 143.721 8.5923C149.006 11.0909 153.473 15.0421 156.603 19.9854C159.732 24.9288 161.394 30.6609 161.396 36.514Z" fill="#7367F0"/>
<path d="M130.558 23.6646C128.019 23.6646 125.536 24.4189 123.425 25.832C121.313 27.2452 119.668 29.2537 118.696 31.6035C117.725 33.9533 117.471 36.5389 117.967 39.0332C118.463 41.5274 119.687 43.8184 121.483 45.6162C123.279 47.414 125.567 48.6379 128.058 49.1331C130.549 49.6283 133.131 49.3726 135.476 48.3982C137.822 47.4239 139.827 45.7747 141.236 43.6593C142.646 41.5438 143.398 39.0572 143.396 36.514C143.394 33.1052 142.041 29.8367 139.634 27.427C137.226 25.0174 133.962 23.6641 130.558 23.6646ZM130.558 43.8128C129.118 43.8128 127.711 43.3854 126.514 42.5846C125.317 41.7838 124.384 40.6456 123.833 39.3138C123.282 37.9821 123.137 36.5165 123.417 35.1024C123.698 33.6884 124.39 32.3892 125.407 31.3693C126.425 30.3493 127.721 29.6543 129.133 29.3721C130.545 29.0899 132.008 29.2331 133.338 29.7837C134.669 30.3343 135.806 31.2676 136.607 32.4655C137.408 33.6635 137.836 35.0723 137.838 36.514C137.844 37.4736 137.66 38.4249 137.297 39.3127C136.933 40.2006 136.397 41.0074 135.72 41.6863C135.043 42.3652 134.238 42.9028 133.352 43.2678C132.466 43.6328 131.516 43.8181 130.558 43.8128Z" fill="#6666FF"/>
<path d="M44.1871 99.0461C45.0143 99.0404 45.8195 99.3129 46.4737 99.8201L47.3693 97.5618C46.9233 97.2354 46.4208 96.9946 45.8872 96.8513C45.2837 96.6812 44.6594 96.5971 44.0325 96.6013C42.3232 96.6013 40.9942 97.0756 40.0458 98.0242C39.0973 98.9727 38.6231 100.263 38.6231 101.894V103.348H30.6258V101.924C30.6258 100.007 31.5109 99.0475 33.281 99.0461C34.1089 99.0399 34.9149 99.3125 35.5696 99.8201L36.4593 97.5618C36.0127 97.2351 35.5095 96.9942 34.9752 96.8513C34.3718 96.681 33.7474 96.5968 33.1205 96.6013C31.4111 96.6013 30.0829 97.0756 29.1357 98.0242C28.1886 98.9727 27.7144 100.263 27.713 101.894V103.348H24.939V105.791H27.713V119.75H30.6853V105.791H38.6251V119.75H41.5973V105.791H46.2934V103.348H41.5378V101.924C41.5352 100.007 42.4183 99.0475 44.1871 99.0461Z" fill="#333333"/>
<path d="M17.3974 99.2783C15.5949 98.3045 13.5742 97.8072 11.5263 97.8336C9.46842 97.8037 7.43686 98.2995 5.62348 99.2743C3.91284 100.196 2.48629 101.568 1.49803 103.243C0.516275 104.969 0 106.921 0 108.907C0 110.893 0.516275 112.845 1.49803 114.571C2.48455 116.249 3.91131 117.625 5.62348 118.549C7.43736 119.523 9.46869 120.018 11.5263 119.988C13.5736 120.015 15.5941 119.52 17.3974 118.549C19.1053 117.629 20.5277 116.256 21.509 114.58C22.4809 112.846 22.9913 110.891 22.9913 108.903C22.9913 106.914 22.4809 104.959 21.509 103.225C20.5248 101.558 19.1027 100.193 17.3974 99.2783ZM18.8043 113.17C18.0902 114.414 17.0546 115.442 15.8063 116.146C14.4998 116.878 13.0232 117.251 11.5263 117.228C10.0196 117.249 8.53356 116.876 7.21461 116.146C5.95312 115.449 4.90608 114.42 4.1869 113.17C3.46697 111.867 3.08929 110.402 3.08929 108.913C3.08929 107.424 3.46697 105.959 4.1869 104.656C4.90372 103.401 5.95106 102.367 7.21461 101.668C8.5339 100.939 10.0198 100.566 11.5263 100.586C13.0231 100.564 14.4993 100.937 15.8063 101.668C17.0577 102.377 18.0938 103.412 18.8043 104.664C19.5242 105.967 19.9019 107.432 19.9019 108.921C19.9019 110.41 19.5242 111.875 18.8043 113.177V113.17Z" fill="#333333"/>
<path d="M59.7497 104.261C58.4744 103.537 57.0287 103.167 55.5628 103.192C54.0873 103.169 52.632 103.538 51.3442 104.259C50.1071 104.961 49.0906 105.996 48.4096 107.246C47.6891 108.564 47.3219 110.046 47.3436 111.548C47.3171 113.068 47.696 114.568 48.4413 115.892C49.1681 117.163 50.2464 118.197 51.5463 118.869C52.828 119.5 54.2256 119.862 55.6524 119.93C57.0792 119.998 58.5048 119.772 59.8408 119.266C60.9114 118.837 61.863 118.157 62.6149 117.281L60.9762 115.362C59.7873 116.685 58.2114 117.347 56.2484 117.347C54.642 117.347 53.2979 116.909 52.2161 116.033C51.6851 115.608 51.2437 115.081 50.9175 114.483C50.5914 113.886 50.3868 113.23 50.3158 112.552H63.6056C63.6421 112.254 63.6626 111.954 63.667 111.653C63.6961 110.124 63.3404 108.613 62.6327 107.258C61.9729 106.007 60.9735 104.968 59.7497 104.261ZM50.3099 110.413C50.4249 109.107 51.0261 107.892 51.9941 107.01C52.9518 106.142 54.1407 105.709 55.5608 105.71C56.9809 105.711 58.1697 106.149 59.1275 107.024C60.0872 107.906 60.6865 109.114 60.8097 110.413H50.3099Z" fill="#333333"/>
<path d="M76.5148 103.192C75.3214 103.17 74.1369 103.402 73.0393 103.872C72.0665 104.287 71.2265 104.962 70.612 105.823V103.348H67.7666V119.75H70.7388V111.302C70.7388 109.549 71.2012 108.203 72.1259 107.264C73.0506 106.324 74.3174 105.855 75.9263 105.855C77.349 105.855 78.4415 106.257 79.2037 107.061C79.9659 107.866 80.347 109.063 80.347 110.653V119.75H83.3193V110.31C83.3193 107.98 82.7063 106.212 81.4804 105.005C80.2546 103.799 78.5994 103.194 76.5148 103.192Z" fill="#333333"/>
<path d="M101.39 105.825C100.747 104.97 99.8966 104.293 98.9195 103.858C97.8981 103.407 96.7921 103.18 95.6758 103.192C94.1869 103.167 92.7172 103.53 91.4097 104.243C90.1708 104.928 89.1486 105.947 88.4593 107.184C87.7577 108.535 87.3914 110.034 87.3914 111.556C87.3914 113.078 87.7577 114.578 88.4593 115.928C89.1452 117.172 90.1679 118.196 91.4097 118.883C92.7168 119.597 94.1868 119.96 95.6758 119.935C96.8269 119.948 97.9667 119.706 99.0126 119.224C100.011 118.76 100.873 118.045 101.515 117.148V119.748H104.357V96.7878H101.384L101.39 105.825ZM100.711 114.567C100.257 115.423 99.5698 116.132 98.7293 116.613C97.8652 117.088 96.8954 117.337 95.9096 117.337C94.9239 117.337 93.954 117.088 93.09 116.613C92.2538 116.126 91.5681 115.418 91.1085 114.567C90.6305 113.633 90.3812 112.599 90.3812 111.549C90.3812 110.5 90.6305 109.466 91.1085 108.532C91.5659 107.684 92.2526 106.981 93.09 106.506C93.956 106.037 94.9251 105.791 95.9096 105.791C96.8942 105.791 97.8632 106.037 98.7293 106.506C99.571 106.976 100.259 107.679 100.711 108.532C101.178 109.469 101.422 110.502 101.422 111.549C101.422 112.597 101.178 113.63 100.711 114.567Z" fill="#333333"/>
<path d="M120.87 104.261C119.596 103.537 118.152 103.168 116.687 103.192C115.213 103.169 113.758 103.538 112.471 104.259C111.233 104.961 110.216 105.996 109.534 107.246C108.814 108.564 108.447 110.046 108.468 111.548C108.446 113.069 108.828 114.568 109.576 115.892C110.303 117.163 111.381 118.197 112.681 118.869C113.963 119.501 115.361 119.862 116.788 119.93C118.215 119.998 119.641 119.772 120.977 119.266C122.047 118.837 122.999 118.156 123.751 117.281L122.113 115.362C120.924 116.685 119.348 117.347 117.385 117.347C115.777 117.347 114.432 116.909 113.351 116.033C112.82 115.607 112.379 115.08 112.053 114.483C111.727 113.886 111.522 113.229 111.45 112.552H124.738C124.775 112.254 124.795 111.954 124.8 111.653C124.83 110.124 124.474 108.612 123.765 107.258C123.103 106.005 122.099 104.966 120.87 104.261ZM111.431 110.413C111.547 109.107 112.148 107.893 113.115 107.01C114.074 106.142 115.263 105.709 116.681 105.71C118.1 105.711 119.289 106.149 120.248 107.024C121.208 107.907 121.807 109.114 121.932 110.413H111.431Z" fill="#333333"/>
<path d="M131.737 106.105V103.348H128.893V119.75H131.866V111.58C131.866 109.806 132.324 108.439 133.241 107.48C134.157 106.521 135.419 106.041 137.025 106.041C137.253 106.038 137.48 106.048 137.707 106.071V103.192C136.264 103.192 135.038 103.44 134.027 103.936C133.052 104.396 132.25 105.156 131.737 106.105Z" fill="#333333"/>
<path d="M162.826 115.791L156.862 98.0876H154.018L147.931 115.698L142.09 98.0876H138.908L146.138 119.75H149.445L155.348 102.451L161.251 119.75H164.495L171.725 98.0876H168.79L162.826 115.791Z" fill="#333333"/>
<path d="M178.062 103.348H175.094V119.75H178.062V103.348Z" fill="#333333"/>
<path d="M176.578 96.3215C176.311 96.314 176.046 96.3612 175.799 96.4602C175.552 96.5591 175.327 96.7078 175.139 96.897C174.955 97.075 174.81 97.2889 174.712 97.5254C174.613 97.762 174.565 98.0161 174.568 98.2722C174.564 98.5267 174.612 98.7794 174.71 99.0142C174.808 99.2489 174.955 99.4605 175.139 99.6355C175.33 99.8197 175.555 99.9638 175.802 100.059C176.049 100.155 176.313 100.2 176.578 100.191C176.843 100.199 177.108 100.152 177.355 100.054C177.602 99.9556 177.826 99.8079 178.014 99.6197C178.201 99.4364 178.348 99.2168 178.446 98.9745C178.545 98.7322 178.593 98.4722 178.587 98.2107C178.592 97.9586 178.543 97.7085 178.444 97.4766C178.346 97.2447 178.199 97.0363 178.014 96.8652C177.626 96.5008 177.109 96.3053 176.578 96.3215Z" fill="#333333"/>
<path d="M192.539 111.161C191.489 110.851 190.421 110.609 189.34 110.437C188.351 110.25 187.584 110.085 187.038 109.941C186.535 109.817 186.066 109.585 185.663 109.26C185.479 109.105 185.333 108.91 185.236 108.69C185.14 108.47 185.095 108.23 185.106 107.99C185.106 107.307 185.437 106.764 186.097 106.351C186.757 105.938 187.714 105.732 188.97 105.732C190.784 105.732 192.36 106.165 193.698 107.032L194.964 104.678C194.135 104.168 193.227 103.8 192.277 103.589C191.205 103.325 190.105 103.192 189.002 103.192C186.92 103.192 185.261 103.641 184.024 104.539C182.788 105.437 182.17 106.628 182.171 108.111C182.171 109.266 182.47 110.164 183.067 110.806C183.653 111.438 184.394 111.906 185.215 112.165C186.272 112.483 187.352 112.72 188.445 112.876C189.412 113.042 190.161 113.193 190.684 113.324C191.163 113.437 191.612 113.653 191.998 113.959C192.17 114.102 192.308 114.282 192.399 114.487C192.491 114.691 192.534 114.914 192.525 115.138C192.525 116.622 191.226 117.365 188.629 117.365C187.572 117.364 186.52 117.207 185.508 116.9C184.574 116.636 183.689 116.219 182.891 115.666L181.654 118.018C182.353 118.577 183.321 119.036 184.559 119.395C185.814 119.759 187.115 119.941 188.421 119.936C190.605 119.936 192.33 119.499 193.597 118.623C194.863 117.747 195.498 116.566 195.499 115.079C195.499 113.963 195.21 113.097 194.633 112.479C194.062 111.864 193.34 111.409 192.539 111.161Z" fill="#333333"/>
<path d="M214 111.643C214.029 110.115 213.673 108.603 212.966 107.248C212.307 106.002 211.31 104.966 210.091 104.261C208.815 103.537 207.369 103.169 205.904 103.194C204.428 103.171 202.973 103.54 201.685 104.261C200.445 104.962 199.426 105.997 198.743 107.248C198.022 108.566 197.654 110.048 197.675 111.55C197.651 113.066 198.03 114.561 198.772 115.882C199.5 117.154 200.579 118.187 201.879 118.859C203.161 119.491 204.559 119.852 205.986 119.92C207.414 119.989 208.839 119.762 210.176 119.256C211.246 118.827 212.198 118.147 212.95 117.271L211.311 115.352C210.122 116.675 208.546 117.337 206.583 117.337C204.977 117.337 203.633 116.899 202.551 116.023C202.02 115.597 201.579 115.071 201.252 114.473C200.926 113.876 200.721 113.22 200.649 112.542H213.939C213.975 112.244 213.996 111.944 214 111.643ZM200.649 110.405C200.766 109.099 201.367 107.885 202.335 107.002C203.293 106.134 204.482 105.701 205.902 105.702C207.322 105.703 208.511 106.141 209.468 107.016C210.429 107.898 211.03 109.105 211.153 110.405H200.649Z" fill="#333333"/>
</svg>
