<svg width="24" height="24" viewBox="0 0 24 24" fill="none" xmlns="http://www.w3.org/2000/svg">
<path d="M12 23C18.0751 23 23 18.0751 23 12C23 5.92487 18.0751 1 12 1C5.92487 1 1 5.92487 1 12C1 18.0751 5.92487 23 12 23Z" stroke="#6666FF" stroke-width="2" stroke-linecap="round" stroke-linejoin="round"/>
<path d="M9.08984 9C9.32495 8.33167 9.789 7.76811 10.3998 7.40913C11.0106 7.05016 11.7287 6.91894 12.427 7.03871C13.1253 7.15849 13.7587 7.52153 14.2149 8.06353C14.6712 8.60553 14.9209 9.29152 14.9198 10C14.9198 12 11.9198 13 11.9198 13" stroke="#6666FF" stroke-width="2" stroke-linecap="round" stroke-linejoin="round"/>
<path d="M12 17H12.01" stroke="#6666FF" stroke-width="2" stroke-linecap="round" stroke-linejoin="round"/>
</svg>
