<svg width="24" height="24" viewBox="0 0 24 24" fill="none" xmlns="http://www.w3.org/2000/svg">
<path d="M12.7755 8.1251C12.7755 7.64908 12.4323 7.26318 12.0088 7.26318C11.5854 7.26318 11.2421 7.64908 11.2421 8.1251V12.4644C11.2421 12.9404 11.5854 13.3263 12.0088 13.3263C12.4323 13.3263 12.7755 12.9404 12.7755 12.4644V8.1251Z" fill="#00244A"/>
<path d="M12.4145 11.8699C12.0858 11.6801 11.6477 11.8236 11.436 12.1903C11.2242 12.557 11.3191 13.0081 11.6478 13.1979L14.6444 14.928C14.9731 15.1178 15.4112 14.9743 15.623 14.6076C15.8347 14.2409 15.7398 13.7898 15.4111 13.6L12.4145 11.8699Z" fill="#00244A"/>
<path d="M19.576 9.73402C19.1292 9.73402 18.7669 9.37597 18.7669 8.93428C18.7669 8.4926 19.1292 8.13454 19.576 8.13454C20.0228 8.13454 20.385 8.4926 20.385 8.93428C20.385 9.37597 20.0228 9.73402 19.576 9.73402Z" fill="#00244A"/>
<path d="M15.1952 5.40692C14.7484 5.40692 14.3862 5.04886 14.3862 4.60718C14.3862 4.1655 14.7484 3.80744 15.1952 3.80744C15.642 3.80744 16.0042 4.1655 16.0042 4.60718C16.0042 5.04886 15.642 5.40692 15.1952 5.40692Z" fill="#00244A"/>
<path d="M17.8182 7.14213C17.3714 7.14213 17.0091 6.78407 17.0091 6.34239C17.0091 5.9007 17.3714 5.54265 17.8182 5.54265C18.265 5.54265 18.6272 5.9007 18.6272 6.34239C18.6272 6.78407 18.265 7.14213 17.8182 7.14213Z" fill="#00244A"/>
<path d="M20.191 12.7983C19.7442 12.7983 19.382 12.4402 19.382 11.9985C19.382 11.5568 19.7442 11.1988 20.191 11.1988C20.6378 11.1988 21 11.5568 21 11.9985C21 12.4402 20.6378 12.7983 20.191 12.7983Z" fill="#00244A"/>
<path fill-rule="evenodd" clip-rule="evenodd" d="M13.0939 3.99968C13.0937 3.44743 12.6459 2.99986 12.0936 3C10.449 3.00041 8.83469 3.442 7.42276 4.2786C6.01073 5.11526 4.85352 6.31599 4.07593 7.7539C3.29828 9.19191 2.92992 10.8125 3.011 12.4424C3.09208 14.0724 3.61948 15.6491 4.53576 17.0043C5.45197 18.3594 6.72229 19.4418 8.21004 20.1374C9.69771 20.8329 11.3478 21.1159 12.9846 20.9569C14.6213 20.798 16.1847 20.2028 17.5078 19.2337C18.831 18.2645 19.8645 16.9574 20.4966 15.4509C20.7103 14.9416 20.4706 14.3556 19.9613 14.142C19.4521 13.9283 18.866 14.1679 18.6523 14.6772C18.1616 15.8468 17.358 16.8644 16.3259 17.6203C15.2937 18.3764 14.0721 18.842 12.7912 18.9665C11.5103 19.0909 10.2196 18.8692 9.05712 18.3258C7.89477 17.7823 6.90511 16.938 6.19265 15.8843C5.48026 14.8306 5.0714 13.6067 5.00854 12.3431C4.94569 11.0795 5.23111 9.82223 5.83521 8.70514C6.43936 7.58795 7.34 6.65224 8.44233 5.99908C9.54476 5.34587 10.807 5.00018 12.0941 4.99986C12.6464 4.99972 13.094 4.55193 13.0939 3.99968Z" fill="#00244A"/>
</svg>
