<svg width="33" height="32" viewBox="0 0 33 32" fill="none" xmlns="http://www.w3.org/2000/svg">
<g opacity="0.5">
<path d="M17.5001 11.8334C17.5001 11.3731 17.1269 11 16.6666 11C16.2063 11 15.8332 11.3731 15.8332 11.8334V15.4049H12.5001C12.0398 15.4049 11.6666 15.7781 11.6666 16.2384C11.6666 16.6987 12.0398 17.0718 12.5001 17.0718H15.8332V20.1666C15.8332 20.6269 16.2063 21 16.6666 21C17.1269 21 17.5001 20.6269 17.5001 20.1666V17.0718H20.8332C21.2935 17.0718 21.6666 16.6987 21.6666 16.2384C21.6666 15.7781 21.2935 15.4049 20.8332 15.4049H17.5001V11.8334Z" fill="#00244A"/>
<path d="M16.6666 31.5C16.3255 31.5 15.987 31.489 15.6514 31.4673L15.5869 32.4652C15.9439 32.4883 16.3039 32.5 16.6666 32.5V31.5ZM13.6411 31.205C12.9716 31.0725 12.3178 30.897 11.6824 30.6814L11.361 31.6283C12.0377 31.858 12.7341 32.0449 13.447 32.1859L13.6411 31.205ZM9.80995 29.9049C9.20134 29.6042 8.61525 29.2647 8.05493 28.8896L7.49862 29.7205C8.09501 30.1198 8.71895 30.4813 9.36699 30.8015L9.80995 29.9049ZM6.44683 27.6539C5.93825 27.2075 5.45913 26.7284 5.01277 26.2198L4.26118 26.8794C4.73617 27.4206 5.24601 27.9305 5.78719 28.4054L6.44683 27.6539ZM3.77706 24.6117C3.40194 24.0514 3.06242 23.4653 2.76171 22.8567L1.86517 23.2996C2.18536 23.9477 2.54682 24.5716 2.94609 25.168L3.77706 24.6117ZM1.98526 20.9842C1.76964 20.3489 1.5941 19.695 1.46166 19.0256L0.480677 19.2196C0.621704 19.9325 0.808652 20.6289 1.03831 21.3056L1.98526 20.9842ZM1.19932 17.0152C1.17764 16.6797 1.16663 16.3412 1.16663 16H0.166626C0.166626 16.3627 0.178335 16.7227 0.201405 17.0797L1.19932 17.0152ZM1.16663 16C1.16663 15.6588 1.17764 15.3203 1.19932 14.9848L0.201405 14.9203C0.178335 15.2773 0.166626 15.6373 0.166626 16H1.16663ZM1.46166 12.9744C1.5941 12.305 1.76964 11.6511 1.98526 11.0158L1.03831 10.6944C0.808652 11.3711 0.621704 12.0675 0.480677 12.7804L1.46166 12.9744ZM2.76171 9.14333C3.06242 8.53471 3.40194 7.94863 3.77706 7.38831L2.9461 6.83199C2.54682 7.42839 2.18536 8.05232 1.86517 8.70036L2.76171 9.14333ZM5.01277 5.78021C5.45913 5.27163 5.93826 4.79251 6.44684 4.34614L5.7872 3.59456C5.24601 4.06954 4.73617 4.57938 4.26119 5.12057L5.01277 5.78021ZM8.05494 3.11044C8.61525 2.73531 9.20134 2.39579 9.80995 2.09508L9.36699 1.19855C8.71895 1.51873 8.09501 1.88019 7.49862 2.27947L8.05494 3.11044ZM11.6824 1.31864C12.3178 1.10301 12.9716 0.927472 13.6411 0.795039L13.447 -0.185949C12.7341 -0.0449218 12.0377 0.142026 11.361 0.371686L11.6824 1.31864ZM15.6514 0.532697C15.987 0.511014 16.3255 0.5 16.6666 0.5V-0.5C16.3039 -0.5 15.9439 -0.488291 15.5869 -0.465221L15.6514 0.532697ZM16.6666 0.5C17.0078 0.5 17.3463 0.511014 17.6818 0.532697L17.7463 -0.465221C17.3893 -0.488291 17.0293 -0.5 16.6666 -0.5V0.5ZM19.6922 0.795039C20.3616 0.927472 21.0155 1.10301 21.6509 1.31864L21.9722 0.371687C21.2955 0.142027 20.5991 -0.0449216 19.8863 -0.185949L19.6922 0.795039ZM23.5233 2.09509C24.1319 2.39579 24.718 2.73531 25.2783 3.11044L25.8346 2.27947C25.2382 1.88019 24.6143 1.51873 23.9663 1.19855L23.5233 2.09509ZM26.8864 4.34614C27.395 4.79251 27.8741 5.27163 28.3205 5.78021L29.0721 5.12057C28.5971 4.57938 28.0872 4.06955 27.5461 3.59456L26.8864 4.34614ZM29.5562 7.38831C29.9313 7.94863 30.2708 8.53471 30.5715 9.14333L31.4681 8.70036C31.1479 8.05232 30.7864 7.42839 30.3872 6.83199L29.5562 7.38831ZM31.348 11.0158C31.5636 11.6511 31.7392 12.305 31.8716 12.9744L32.8526 12.7804C32.7115 12.0675 32.5246 11.3711 32.2949 10.6944L31.348 11.0158ZM32.1339 14.9848C32.1556 15.3203 32.1666 15.6588 32.1666 16H33.1666C33.1666 15.6373 33.1549 15.2773 33.1318 14.9203L32.1339 14.9848ZM32.1666 16C32.1666 16.3412 32.1556 16.6797 32.1339 17.0152L33.1318 17.0797C33.1549 16.7227 33.1666 16.3627 33.1666 16H32.1666ZM31.8716 19.0256C31.7392 19.695 31.5636 20.3489 31.348 20.9842L32.2949 21.3056C32.5246 20.6289 32.7115 19.9325 32.8526 19.2196L31.8716 19.0256ZM30.5715 22.8567C30.2708 23.4653 29.9313 24.0514 29.5562 24.6117L30.3872 25.168C30.7864 24.5716 31.1479 23.9477 31.4681 23.2996L30.5715 22.8567ZM28.3205 26.2198C27.8741 26.7284 27.395 27.2075 26.8864 27.6539L27.5461 28.4054C28.0872 27.9305 28.5971 27.4206 29.0721 26.8794L28.3205 26.2198ZM25.2783 28.8896C24.718 29.2647 24.1319 29.6042 23.5233 29.9049L23.9663 30.8015C24.6143 30.4813 25.2382 30.1198 25.8346 29.7205L25.2783 28.8896ZM21.6509 30.6814C21.0155 30.897 20.3616 31.0725 19.6922 31.205L19.8863 32.1859C20.5991 32.0449 21.2955 31.858 21.9722 31.6283L21.6509 30.6814ZM17.6818 31.4673C17.3463 31.489 17.0078 31.5 16.6666 31.5V32.5C17.0293 32.5 17.3893 32.4883 17.7463 32.4652L17.6818 31.4673ZM16.6666 31C16.3362 31 16.0085 30.9893 15.6837 30.9683L15.5547 32.9642C15.9224 32.9879 16.2932 33 16.6666 33V31ZM13.7381 30.7145C13.0904 30.5863 12.4578 30.4165 11.8431 30.2079L11.2003 32.1018C11.8977 32.3385 12.6154 32.5311 13.35 32.6764L13.7381 30.7145ZM10.0314 29.4566C9.44253 29.1657 8.87537 28.8371 8.33309 28.4741L7.22046 30.136C7.83489 30.5474 8.47775 30.9198 9.1455 31.2497L10.0314 29.4566ZM6.77665 27.2781C6.28438 26.846 5.82061 26.3822 5.38856 25.89L3.88539 27.2092C4.37469 27.7667 4.89988 28.2919 5.45737 28.7812L6.77665 27.2781ZM4.19255 24.3335C3.8295 23.7913 3.50095 23.2241 3.20998 22.6352L1.4169 23.5211C1.74683 24.1889 2.11925 24.8317 2.53061 25.4462L4.19255 24.3335ZM2.45874 20.8235C2.25013 20.2089 2.08029 19.5762 1.95216 18.9285L-0.0098173 19.3167C0.135508 20.0513 0.328161 20.7689 0.564837 21.4663L2.45874 20.8235ZM1.69828 16.983C1.67729 16.6581 1.66663 16.3304 1.66663 16H-0.333374C-0.333374 16.3734 -0.321317 16.7442 -0.297554 17.1119L1.69828 16.983ZM1.66663 16C1.66663 15.6696 1.67729 15.3419 1.69828 15.017L-0.297554 14.8881C-0.321317 15.2558 -0.333374 15.6266 -0.333374 16H1.66663ZM1.95216 13.0715C2.08029 12.4238 2.25013 11.7911 2.45874 11.1765L0.564837 10.5337C0.328161 11.2311 0.135508 11.9487 -0.00981718 12.6833L1.95216 13.0715ZM3.20998 9.36481C3.50095 8.77591 3.8295 8.20875 4.19255 7.66647L2.53061 6.55383C2.11926 7.16827 1.74683 7.81112 1.4169 8.47888L3.20998 9.36481ZM5.38856 6.11003C5.82061 5.61775 6.28438 5.15399 6.77666 4.72193L5.45738 3.21877C4.89988 3.70806 4.37469 4.23325 3.8854 4.79075L5.38856 6.11003ZM8.3331 3.52592C8.87537 3.16287 9.44253 2.83432 10.0314 2.54335L9.14551 0.750276C8.47775 1.0802 7.83489 1.45263 7.22046 1.86398L8.3331 3.52592ZM11.8431 1.79211C12.4578 1.5835 13.0904 1.41367 13.7381 1.28553L13.35 -0.676443C12.6154 -0.531118 11.8977 -0.338465 11.2003 -0.101789L11.8431 1.79211ZM15.6837 1.03166C16.0085 1.01067 16.3362 1 16.6666 1V-1C16.2932 -1 15.9224 -0.987943 15.5547 -0.96418L15.6837 1.03166ZM16.6666 1C16.997 1 17.3248 1.01067 17.6496 1.03166L17.7786 -0.96418C17.4108 -0.987943 17.0401 -1 16.6666 -1V1ZM19.5951 1.28553C20.2429 1.41367 20.8755 1.5835 21.4902 1.79211L22.1329 -0.101789C21.4355 -0.338465 20.7179 -0.531118 19.9833 -0.676443L19.5951 1.28553ZM23.3018 2.54335C23.8907 2.83432 24.4579 3.16288 25.0002 3.52592L26.1128 1.86399C25.4984 1.45263 24.8555 1.0802 24.1877 0.750277L23.3018 2.54335ZM26.5566 4.72193C27.0489 5.15399 27.5126 5.61776 27.9447 6.11003L29.4479 4.79075C28.9586 4.23326 28.4334 3.70807 27.8759 3.21877L26.5566 4.72193ZM29.1407 7.66647C29.5038 8.20875 29.8323 8.77591 30.1233 9.36481L31.9163 8.47888C31.5864 7.81113 31.214 7.16827 30.8026 6.55383L29.1407 7.66647ZM30.8745 11.1765C31.0831 11.7911 31.253 12.4238 31.3811 13.0715L33.3431 12.6833C33.1977 11.9487 33.0051 11.2311 32.7684 10.5337L30.8745 11.1765ZM31.635 15.017C31.656 15.3419 31.6666 15.6696 31.6666 16H33.6666C33.6666 15.6266 33.6546 15.2558 33.6308 14.8881L31.635 15.017ZM31.6666 16C31.6666 16.3304 31.656 16.6581 31.635 16.983L33.6308 17.1119C33.6546 16.7442 33.6666 16.3734 33.6666 16H31.6666ZM31.3811 18.9285C31.253 19.5762 31.0831 20.2089 30.8745 20.8235L32.7684 21.4663C33.0051 20.7689 33.1977 20.0513 33.3431 19.3167L31.3811 18.9285ZM30.1233 22.6352C29.8323 23.2241 29.5037 23.7913 29.1407 24.3335L30.8026 25.4462C31.214 24.8317 31.5864 24.1889 31.9163 23.5211L30.1233 22.6352ZM27.9447 25.89C27.5126 26.3822 27.0489 26.846 26.5566 27.2781L27.8759 28.7812C28.4334 28.2919 28.9586 27.7667 29.4479 27.2093L27.9447 25.89ZM25.0002 28.4741C24.4579 28.8371 23.8907 29.1657 23.3018 29.4566L24.1877 31.2497C24.8555 30.9198 25.4984 30.5474 26.1128 30.136L25.0002 28.4741ZM21.4902 30.2079C20.8755 30.4165 20.2429 30.5863 19.5951 30.7145L19.9833 32.6764C20.7179 32.5311 21.4355 32.3385 22.1329 32.1018L21.4902 30.2079ZM17.6496 30.9683C17.3248 30.9893 16.997 31 16.6666 31V33C17.0401 33 17.4108 32.9879 17.7786 32.9642L17.6496 30.9683Z" fill="#00244A"/>
</g>
</svg>
