<svg width="18" height="19" viewBox="0 0 18 19" fill="none" xmlns="http://www.w3.org/2000/svg">
<path d="M15.2069 1.22581H12.5628C12.2426 0.842642 11.8407 0.534068 11.3858 0.322157C10.9308 0.110247 10.4341 0.000238535 9.93103 0H3.41379C2.5084 0 1.64009 0.355154 0.999877 0.987333C0.359666 1.61951 0 2.47693 0 3.37097V15.629C0 16.5231 0.359666 17.3805 0.999877 18.0127C1.64009 18.6448 2.5084 19 3.41379 19H6.82759V17.1613H3.41379C3.00225 17.1613 2.60756 16.9999 2.31656 16.7125C2.02555 16.4251 1.86207 16.0354 1.86207 15.629V3.37097C1.86207 2.96459 2.02555 2.57485 2.31656 2.2875C2.60756 2.00014 3.00225 1.83871 3.41379 1.83871H9.93103C10.3426 1.83871 10.7373 2.00014 11.0283 2.2875C11.3193 2.57485 11.4828 2.96459 11.4828 3.37097V9.43871L16.1379 11.8903V15.629C16.1379 16.0354 15.9744 16.4251 15.6834 16.7125C15.3924 16.9999 14.9977 17.1613 14.5862 17.1613H8.68965V19H14.5862C15.4916 19 16.3599 18.6448 17.0001 18.0127C17.6403 17.3805 18 16.5231 18 15.629V3.98387C18 3.25239 17.7057 2.55086 17.1819 2.03363C16.6581 1.51639 15.9477 1.22581 15.2069 1.22581ZM16.1379 9.80645L13.3448 8.33548V3.37097C13.3448 3.26677 13.3448 3.16565 13.3293 3.06452H15.2069C15.4538 3.06452 15.6906 3.16138 15.8652 3.33379C16.0398 3.5062 16.1379 3.74004 16.1379 3.98387V9.80645Z" fill="#00244A"/>
<path d="M8.68971 9.34674V8.42739C8.68971 8.30548 8.64066 8.18855 8.55336 8.10235C8.46606 8.01614 8.34765 7.96771 8.22419 7.96771H6.82764V9.80642H8.22419C8.34765 9.80642 8.46606 9.75799 8.55336 9.67179C8.64066 9.58558 8.68971 9.46866 8.68971 9.34674Z" fill="#00244A"/>
<path d="M5.43097 9.80646C5.30751 9.80646 5.1891 9.85489 5.1018 9.94109C5.0145 10.0273 4.96545 10.1442 4.96545 10.2661V11.1855C4.96545 11.3074 5.0145 11.4243 5.1018 11.5105C5.1891 11.5967 5.30751 11.6452 5.43097 11.6452H6.82752V9.80646H5.43097Z" fill="#00244A"/>
<path d="M6.36201 6.12903H5.43097C5.30751 6.12903 5.1891 6.17746 5.1018 6.26366C5.0145 6.34987 4.96545 6.46679 4.96545 6.58871V7.50806C4.96545 7.62997 5.0145 7.7469 5.1018 7.8331C5.1891 7.91931 5.30751 7.96774 5.43097 7.96774H6.82752V6.58871C6.82752 6.46679 6.77848 6.34987 6.69118 6.26366C6.60388 6.17746 6.48547 6.12903 6.36201 6.12903Z" fill="#00244A"/>
<path d="M8.68971 13.0242V12.1048C8.68971 11.9829 8.64066 11.866 8.55336 11.7798C8.46606 11.6936 8.34765 11.6451 8.22419 11.6451H6.82764V13.4839H8.22419C8.34765 13.4839 8.46606 13.4354 8.55336 13.3492C8.64066 13.263 8.68971 13.1461 8.68971 13.0242Z" fill="#00244A"/>
<path d="M5.43097 13.4839C5.30751 13.4839 5.1891 13.5323 5.1018 13.6185C5.0145 13.7047 4.96545 13.8217 4.96545 13.9436V14.8629C4.96545 14.9848 5.0145 15.1018 5.1018 15.188C5.1891 15.2742 5.30751 15.3226 5.43097 15.3226H6.82752V13.4839H5.43097Z" fill="#00244A"/>
<path d="M8.22419 15.3226H6.82764V17.1613H8.68971V15.7822C8.68971 15.6603 8.64066 15.5434 8.55336 15.4572C8.46606 15.371 8.34765 15.3226 8.22419 15.3226Z" fill="#00244A"/>
</svg>
