<svg width="40" height="40" viewBox="0 0 40 40" fill="none" xmlns="http://www.w3.org/2000/svg">
<rect width="40" height="40" rx="20" fill="#00244A"/>
<path d="M22.2067 15.4063C22.5655 15.7594 22.5655 16.3379 22.2068 16.6911L17.7198 21.1075C17.633 21.19 17.5637 21.2887 17.5161 21.3978C17.4685 21.5069 17.4434 21.6243 17.4424 21.743C17.4413 21.8617 17.4643 21.9795 17.51 22.0894C17.5557 22.1993 17.6232 22.2992 17.7085 22.3831C17.7938 22.4671 17.8953 22.5335 18.0069 22.5785C18.1186 22.6234 18.2383 22.646 18.3589 22.645C18.4796 22.644 18.5988 22.6193 18.7097 22.5724C18.8206 22.5256 18.9208 22.4575 19.0047 22.372L24.1452 17.314C24.6565 16.8109 24.9438 16.1284 24.9438 15.4169C24.9438 14.7053 24.6565 14.0228 24.1452 13.5197C23.634 13.0165 22.9405 12.7338 22.2174 12.7338C21.4943 12.7338 20.8009 13.0165 20.2896 13.5197L15.149 18.5785C14.7183 18.9918 14.3754 19.4851 14.1399 20.0299C13.9045 20.5746 13.7813 21.1599 13.7776 21.7518C13.7738 22.3438 13.8895 22.9306 14.118 23.4782C14.3464 24.0258 14.6831 24.5233 15.1085 24.9418C15.5339 25.3604 16.0394 25.6916 16.5959 25.9164C17.1524 26.1411 17.7487 26.2549 18.3502 26.2511C18.9517 26.2473 19.5464 26.126 20.0999 25.8943C20.6534 25.6625 21.1546 25.3249 21.5745 24.901L26.0829 20.4651C26.4337 20.1199 26.9965 20.12 27.3472 20.4651C27.706 20.8182 27.706 21.3968 27.3472 21.7499L22.8594 26.1664C22.2687 26.7477 21.5675 27.2089 20.7957 27.5235C20.0239 27.8381 19.1967 28 18.3613 28C17.5259 28 16.6987 27.8381 15.9269 27.5235C15.1551 27.2089 14.4539 26.7477 13.8632 26.1664C13.2725 25.5851 12.8039 24.895 12.4842 24.1355C12.1645 23.3759 12 22.5619 12 21.7398C12 20.9177 12.1645 20.1036 12.4842 19.3441C12.8039 18.5846 13.2725 17.8945 13.8632 17.3132L19.0047 12.2552C19.8616 11.4407 21.0093 10.99 22.2006 11.0002C23.3919 11.0104 24.5315 11.4806 25.3739 12.3096C26.2163 13.1387 26.6942 14.2601 26.7045 15.4325C26.7149 16.6049 26.2569 17.7343 25.4293 18.5777L20.2896 23.6383C20.0364 23.8875 19.7357 24.0851 19.4049 24.2199C19.0741 24.3547 18.7195 24.4241 18.3614 24.424C18.0034 24.424 17.6488 24.3545 17.318 24.2197C16.9872 24.0848 16.6866 23.8871 16.4335 23.6379C16.1803 23.3887 15.9795 23.0928 15.8425 22.7673C15.7055 22.4417 15.635 22.0928 15.6351 21.7404C15.6351 21.388 15.7057 21.0391 15.8428 20.7135C15.9798 20.388 16.1807 20.0922 16.4339 19.843L20.9423 15.4063C21.2931 15.0611 21.8559 15.0611 22.2067 15.4063Z" fill="white"/>
</svg>
