<svg width="24" height="24" viewBox="0 0 24 24" fill="none" xmlns="http://www.w3.org/2000/svg">
<path d="M6.44445 4C5.33988 4 4.44445 4.89543 4.44445 6V14.8162C4.08814 14.6925 3.71238 14.6279 3.33333 14.625C2.67406 14.625 2.0296 14.8119 1.48143 15.1622C0.93327 15.5124 0.506028 16.0103 0.253736 16.5927C0.00144429 17.1751 -0.0645668 17.816 0.0640506 18.4344C0.192668 19.0527 0.510137 19.6206 0.976312 20.0664C1.44249 20.5122 2.03643 20.8158 2.68303 20.9388C3.32964 21.0617 3.99986 20.9986 4.60895 20.7574C5.21803 20.5161 5.73863 20.1076 6.1049 19.5834C6.47117 19.0592 6.66667 18.4429 6.66667 17.8125V10.375H17.7778V12.6912C17.4215 12.5676 17.0457 12.5029 16.6667 12.5C16.0074 12.5 15.3629 12.6869 14.8148 13.0372C14.2666 13.3874 13.8394 13.8853 13.5871 14.4677C13.3348 15.0501 13.2688 15.691 13.3974 16.3093C13.526 16.9277 13.8435 17.4956 14.3096 17.9414C14.7758 18.3872 15.3698 18.6908 16.0164 18.8138C16.663 18.9367 17.3332 18.8736 17.9423 18.6324C18.5514 18.3911 19.072 17.9826 19.4382 17.4584C19.8045 16.9342 20 16.3179 20 15.6875V6C20 4.89543 19.1046 4 18 4H6.44445ZM3.33333 18.875C3.11358 18.875 2.89876 18.8127 2.71603 18.6959C2.53331 18.5792 2.3909 18.4132 2.3068 18.2191C2.2227 18.025 2.2007 17.8113 2.24357 17.6052C2.28645 17.3991 2.39227 17.2098 2.54766 17.0612C2.70305 16.9126 2.90103 16.8114 3.11657 16.7704C3.3321 16.7294 3.55551 16.7505 3.75854 16.8309C3.96157 16.9113 4.1351 17.0475 4.25719 17.2222C4.37928 17.3969 4.44445 17.6024 4.44445 17.8125C4.44445 18.0943 4.32738 18.3645 4.11901 18.5638C3.91063 18.7631 3.62802 18.875 3.33333 18.875ZM16.6667 16.75C16.4469 16.75 16.2321 16.6877 16.0494 16.5709C15.8666 16.4542 15.7242 16.2882 15.6401 16.0941C15.556 15.9 15.534 15.6863 15.5769 15.4802C15.6198 15.2741 15.7256 15.0848 15.881 14.9362C16.0364 14.7876 16.2344 14.6864 16.4499 14.6454C16.6654 14.6044 16.8888 14.6255 17.0919 14.7059C17.2949 14.7863 17.4684 14.9225 17.5905 15.0972C17.7126 15.2719 17.7778 15.4774 17.7778 15.6875C17.7778 15.9693 17.6607 16.2395 17.4523 16.4388C17.244 16.6381 16.9614 16.75 16.6667 16.75ZM6.66667 6.125H17.7778V8.25H6.66667V6.125Z" fill="#00244A"/>
</svg>
