<svg width="64" height="64" viewBox="0 0 64 64" fill="none" xmlns="http://www.w3.org/2000/svg">
<g filter="url(#filter0_d_3214_20056)">
<path d="M12 28C12 16.9543 20.9543 8 32 8C43.0457 8 52 16.9543 52 28C52 39.0457 43.0457 48 32 48C20.9543 48 12 39.0457 12 28Z" fill="#00244A"/>
<path d="M31.8932 21.3333C33.3791 21.3333 33.9179 21.488 34.4611 21.7785C35.0043 22.069 35.4306 22.4953 35.7211 23.0385C35.9146 23.4003 36.0479 23.7602 36.1153 24.3993L37.7876 23.3546C38.8218 22.7082 40.1843 23.0226 40.8307 24.0568C41.05 24.4078 41.1663 24.8133 41.1663 25.2272V30.7726C41.1663 31.9922 40.1776 32.981 38.958 32.981C38.5441 32.981 38.1386 32.8646 37.7876 32.6453L36.1153 31.6005C36.0479 32.2396 35.9146 32.5995 35.7211 32.9613C35.4306 33.5045 35.0043 33.9309 34.4611 34.2214C33.9179 34.5119 33.3791 34.6666 31.8932 34.6666H27.1061C25.6203 34.6666 25.0815 34.5119 24.5383 34.2214C23.9951 33.9309 23.5687 33.5045 23.2782 32.9613C22.9877 32.4181 22.833 31.8793 22.833 30.3934V25.6064C22.833 24.1205 22.9877 23.5817 23.2782 23.0385C23.5687 22.4953 23.9951 22.069 24.5383 21.7785C25.0815 21.488 25.6203 21.3333 27.1061 21.3333H31.8932ZM32.0912 23.0007L27.1061 22.9999C26.0031 22.9999 25.6671 23.0648 25.3243 23.2482C25.0715 23.3833 24.8831 23.5717 24.7479 23.8245C24.576 24.146 24.5082 24.4613 24.5004 25.4084L24.4997 30.3934C24.4997 31.4965 24.5645 31.8324 24.7479 32.1753C24.8831 32.4281 25.0715 32.6165 25.3243 32.7517C25.6671 32.935 26.0031 32.9999 27.1061 32.9999H31.8932C32.9963 32.9999 33.3322 32.935 33.6751 32.7517C33.9278 32.6165 34.1163 32.4281 34.2514 32.1753C34.4348 31.8324 34.4997 31.4965 34.4997 30.3934V25.6064C34.4997 24.5033 34.4348 24.1674 34.2514 23.8245C34.1163 23.5717 33.9278 23.3833 33.6751 23.2482C33.3536 23.0762 33.0383 23.0085 32.0912 23.0007ZM38.6709 24.7679L36.1663 26.3333V29.6666L38.6709 31.2319C38.757 31.2858 38.8565 31.3143 38.958 31.3143C39.2572 31.3143 39.4997 31.0718 39.4997 30.7726V25.2272C39.4997 25.1257 39.4711 25.0262 39.4173 24.9401C39.2588 24.6865 38.9246 24.6093 38.6709 24.7679Z" fill="white"/>
</g>
<defs>
<filter id="filter0_d_3214_20056" x="0" y="0" width="64" height="64" filterUnits="userSpaceOnUse" color-interpolation-filters="sRGB">
<feFlood flood-opacity="0" result="BackgroundImageFix"/>
<feColorMatrix in="SourceAlpha" type="matrix" values="0 0 0 0 0 0 0 0 0 0 0 0 0 0 0 0 0 0 127 0" result="hardAlpha"/>
<feOffset dy="4"/>
<feGaussianBlur stdDeviation="6"/>
<feComposite in2="hardAlpha" operator="out"/>
<feColorMatrix type="matrix" values="0 0 0 0 0 0 0 0 0 0.141176 0 0 0 0 0.290196 0 0 0 0.25 0"/>
<feBlend mode="normal" in2="BackgroundImageFix" result="effect1_dropShadow_3214_20056"/>
<feBlend mode="normal" in="SourceGraphic" in2="effect1_dropShadow_3214_20056" result="shape"/>
</filter>
</defs>
</svg>
