<svg width="28" height="28" viewBox="0 0 28 28" fill="none" xmlns="http://www.w3.org/2000/svg">
<path d="M9.46629 16.9238C9.95709 16.5311 10.6718 16.6076 11.0686 17.0931C11.0709 17.0958 11.077 17.1028 11.0869 17.1137C11.1084 17.1372 11.1475 17.1782 11.2039 17.2311C11.3173 17.3374 11.4975 17.4886 11.7435 17.6423C12.2309 17.9469 12.9779 18.2637 14 18.2637C15.0221 18.2637 15.7692 17.9469 16.2566 17.6423C16.5025 17.4886 16.6828 17.3374 16.7962 17.2311C16.8526 17.1782 16.8917 17.1372 16.9132 17.1137L16.9283 17.0967L16.9315 17.0931C17.3283 16.6076 18.043 16.5311 18.5338 16.9238C19.0278 17.319 19.1079 18.0398 18.7127 18.5338L17.8182 17.8182C18.7127 18.5338 18.713 18.5333 18.7127 18.5338L18.7112 18.5356L18.7097 18.5375L18.7062 18.5418L18.6977 18.5521L18.6746 18.5796C18.6565 18.6008 18.633 18.6277 18.6039 18.6595C18.5459 18.723 18.4656 18.8062 18.363 18.9024C18.1582 19.0945 17.8612 19.341 17.4708 19.585C16.6854 20.0758 15.5234 20.5546 14 20.5546C12.4767 20.5546 11.3146 20.0758 10.5293 19.585C10.1389 19.341 9.84187 19.0945 9.63706 18.9024C9.53442 18.8062 9.45416 18.723 9.39613 18.6595C9.36708 18.6277 9.34352 18.6008 9.32543 18.5796L9.30235 18.5521L9.29386 18.5418L9.29038 18.5375L9.28882 18.5356C9.28847 18.5351 9.2874 18.5338 10.1818 17.8182L9.2874 18.5338C8.8922 18.0398 8.9723 17.319 9.46629 16.9238Z" fill="#00244A"/>
<path d="M11.7727 11.7727C11.7727 12.6514 11.0605 13.3637 10.1818 13.3637C9.3032 13.3637 8.59093 12.6514 8.59093 11.7727C8.59093 10.8941 9.3032 10.1818 10.1818 10.1818C11.0605 10.1818 11.7727 10.8941 11.7727 11.7727Z" fill="#00244A"/>
<path d="M17.8182 13.3637C18.6968 13.3637 19.4091 12.6514 19.4091 11.7727C19.4091 10.8941 18.6968 10.1818 17.8182 10.1818C16.9396 10.1818 16.2273 10.8941 16.2273 11.7727C16.2273 12.6514 16.9396 13.3637 17.8182 13.3637Z" fill="#00244A"/>
<path fill-rule="evenodd" clip-rule="evenodd" d="M14 1.40002C7.04124 1.40002 1.40002 7.04124 1.40002 14C1.40002 20.9588 7.04124 26.6 14 26.6C20.9588 26.6 26.6 20.9588 26.6 14C26.6 7.04124 20.9588 1.40002 14 1.40002ZM3.69093 14C3.69093 8.30647 8.30647 3.69093 14 3.69093C19.6936 3.69093 24.3091 8.30647 24.3091 14C24.3091 19.6936 19.6936 24.3091 14 24.3091C8.30647 24.3091 3.69093 19.6936 3.69093 14Z" fill="#00244A"/>
</svg>
