<svg width="28" height="28" viewBox="0 0 28 28" fill="none" xmlns="http://www.w3.org/2000/svg">
<path d="M10.9779 2.45001L17.4105 2.45198C19.6783 2.47575 20.8236 2.71827 22.0109 3.35325C23.1445 3.9595 24.0405 4.85543 24.6467 5.98903C25.317 7.24229 25.5499 8.44878 25.5499 10.978V17.022C25.5499 19.5512 25.317 20.7577 24.6467 22.011C24.0405 23.1446 23.1445 24.0405 22.0109 24.6468C20.7577 25.317 19.5512 25.55 17.022 25.55H10.9779C8.44872 25.55 7.24223 25.317 5.98897 24.6468C4.85537 24.0405 3.95944 23.1446 3.35318 22.011C2.68294 20.7577 2.44995 19.5512 2.44995 17.022L2.45192 10.5895C2.47569 8.32165 2.71821 7.17633 3.35318 5.98903C3.95944 4.85543 4.85537 3.9595 5.98897 3.35325C7.24223 2.683 8.44872 2.45001 10.9779 2.45001ZM17.6044 15.5069L13.2552 20.7922C12.8871 21.2395 12.2263 21.3042 11.7785 20.9368L9.39633 18.9827L6.12282 22.1976C6.37887 22.4272 6.66469 22.6267 6.97933 22.795C7.79125 23.2292 8.58038 23.4108 10.3221 23.4442L10.9779 23.45H17.022L17.6778 23.4442C19.2146 23.4147 20.0098 23.2699 20.7334 22.9379L21.0206 22.795C21.7882 22.3844 22.3844 21.7883 22.7949 21.0206C22.9114 20.8029 23.0096 20.5868 23.0918 20.3535L17.6044 15.5069ZM17.022 4.55001H10.9779L10.3221 4.55582C8.78529 4.58531 7.99011 4.73016 7.26653 5.06212L6.97933 5.20505C6.21169 5.61559 5.61553 6.21176 5.20499 6.97939L5.06206 7.26659C4.68584 8.08665 4.54995 8.99867 4.54995 10.978V17.022L4.55576 17.6779C4.58112 18.9991 4.69174 19.7722 4.93323 20.4229L8.59754 16.8238C8.98019 16.448 9.58455 16.421 9.99922 16.7611L12.2998 18.6483L16.6738 13.3328C17.0514 12.8739 17.7343 12.8196 18.1797 13.2131L23.44 17.8622C23.4415 17.802 23.4429 17.7405 23.4441 17.6779L23.45 17.022V10.978L23.4441 10.3221C23.4147 8.78535 23.2698 7.99017 22.9378 7.26659L22.7949 6.97939C22.3844 6.21176 21.7882 5.61559 21.0206 5.20505C20.2087 4.77084 19.4195 4.58924 17.6778 4.55582L17.022 4.55001ZM9.91662 8.16668C10.8831 8.16668 11.6666 8.95018 11.6666 9.91668C11.6666 10.8832 10.8831 11.6667 9.91662 11.6667C8.95012 11.6667 8.16662 10.8832 8.16662 9.91668C8.16662 8.95018 8.95012 8.16668 9.91662 8.16668Z" fill="#00244A"/>
</svg>
