<svg width="23" height="25" viewBox="0 0 23 25" fill="none" xmlns="http://www.w3.org/2000/svg">
<path d="M15.0894 6.56885C15.5917 7.06318 15.5918 7.87314 15.0895 8.36751L8.8077 14.5506C8.68619 14.6661 8.58928 14.8042 8.5226 14.957C8.45593 15.1097 8.42083 15.274 8.41936 15.4402C8.4179 15.6065 8.45008 15.7713 8.51405 15.9252C8.57802 16.0791 8.67248 16.2188 8.79193 16.3364C8.91138 16.4539 9.05343 16.5469 9.20977 16.6099C9.36612 16.6728 9.53364 16.7045 9.70257 16.703C9.87149 16.7016 10.0384 16.6671 10.1936 16.6014C10.3488 16.5358 10.4892 16.4405 10.6066 16.3209L17.8034 9.23969C18.5192 8.53526 18.9213 7.57984 18.9213 6.58362C18.9213 5.5874 18.5192 4.63198 17.8034 3.92755C17.0876 3.22311 16.1167 2.82737 15.1044 2.82737C14.0921 2.82737 13.1213 3.22311 12.4055 3.92755L5.20866 11.01C4.60574 11.5886 4.12555 12.2792 3.79596 13.0418C3.46637 13.8044 3.29394 14.6239 3.28866 15.4526C3.28338 16.2813 3.44537 17.1028 3.76522 17.8695C4.08508 18.6361 4.55643 19.3326 5.15194 19.9186C5.74745 20.5045 6.45526 20.9683 7.23432 21.2829C8.01338 21.5976 8.84817 21.7569 9.69027 21.7516C10.5324 21.7463 11.365 21.5765 12.1399 21.252C12.9148 20.9275 13.6165 20.4549 14.2044 19.8615L20.5161 13.6511C21.0072 13.1679 21.7951 13.168 22.2862 13.6512C22.7885 14.1456 22.7885 14.9556 22.2862 15.4499L16.0032 21.633C15.1763 22.4469 14.1945 23.0924 13.114 23.5329C12.0335 23.9733 10.8754 24.2 9.70587 24.2C8.53634 24.2 7.37826 23.9733 6.29776 23.5329C5.21726 23.0924 4.23549 22.4469 3.4085 21.633C2.58152 20.8192 1.92552 19.853 1.47796 18.7897C1.0304 17.7263 0.800049 16.5867 0.800049 15.4357C0.800049 14.2848 1.0304 13.1451 1.47796 12.0818C1.92552 11.0184 2.58152 10.0523 3.4085 9.23844L10.6066 2.15725C11.8063 1.01696 13.4131 0.385998 15.0809 0.400261C16.7487 0.414524 18.3441 1.07287 19.5235 2.2335C20.7029 3.39414 21.3719 4.9642 21.3864 6.60552C21.4009 8.24684 20.7597 9.82811 19.601 11.0087L12.4055 18.0937C12.051 18.4425 11.6301 18.7191 11.1669 18.9079C10.7038 19.0966 10.2074 19.1937 9.70606 19.1937C9.20475 19.1936 8.70837 19.0964 8.24525 18.9075C7.78213 18.7187 7.36134 18.4419 7.00691 18.0931C6.65248 17.7442 6.37134 17.33 6.17955 16.8742C5.98777 16.4184 5.88909 15.9299 5.88915 15.4365C5.88921 14.9432 5.988 14.4547 6.1799 13.9989C6.37179 13.5432 6.65303 13.1291 7.00754 12.7803L13.3193 6.56885C13.8104 6.08557 14.5983 6.08557 15.0894 6.56885Z" fill="#00244A"/>
</svg>
