<svg width="16" height="16" viewBox="0 0 16 16" fill="none" xmlns="http://www.w3.org/2000/svg">
<g opacity="0.3">
<path d="M0 8C0 3.58172 3.58172 0 8 0C12.4183 0 16 3.58172 16 8C16 12.4183 12.4183 16 8 16C3.58172 16 0 12.4183 0 8Z" fill="#00244A"/>
<path d="M11.4244 10.5756C11.6587 10.81 11.6587 11.1899 11.4244 11.4242C11.1901 11.6585 10.8102 11.6585 10.5759 11.4242L8.00015 8.84843L5.42441 11.4242C5.1901 11.6585 4.8102 11.6585 4.57588 11.4242C4.34157 11.1899 4.34157 10.81 4.57588 10.5756L7.15162 7.9999L4.57588 5.42417C4.34157 5.18985 4.34157 4.80995 4.57588 4.57564C4.8102 4.34132 5.1901 4.34132 5.42441 4.57564L8.00015 7.15137L10.5759 4.57564C10.8102 4.34132 11.1901 4.34132 11.4244 4.57564C11.6587 4.80995 11.6587 5.18985 11.4244 5.42417L8.84867 7.9999L11.4244 10.5756Z" fill="white"/>
</g>
</svg>
