<svg width="20" height="20" viewBox="0 0 20 20" fill="none" xmlns="http://www.w3.org/2000/svg">
<g opacity="0.5">
<path d="M12.2067 5.40631C12.5655 5.7594 12.5655 6.33794 12.2068 6.69106L7.71975 11.1075C7.63296 11.19 7.56373 11.2887 7.51611 11.3978C7.46848 11.5069 7.44342 11.6243 7.44237 11.743C7.44132 11.8617 7.46431 11.9795 7.51 12.0894C7.55569 12.1993 7.62317 12.2992 7.70849 12.3831C7.79381 12.4671 7.89527 12.5335 8.00695 12.5785C8.11862 12.6234 8.23828 12.646 8.35894 12.645C8.4796 12.644 8.59884 12.6193 8.70971 12.5724C8.82057 12.5256 8.92084 12.4575 9.00467 12.372L14.1452 7.31405C14.6565 6.81088 14.9438 6.12844 14.9438 5.41685C14.9438 4.70527 14.6565 4.02283 14.1452 3.51966C13.634 3.01649 12.9405 2.73382 12.2174 2.73382C11.4943 2.73382 10.8009 3.01649 10.2896 3.51966L5.14901 8.57855C4.71835 8.99181 4.37536 9.48512 4.13994 10.0299C3.90452 10.5746 3.78135 11.1599 3.77758 11.7518C3.77381 12.3438 3.88952 12.9306 4.11798 13.4782C4.34645 14.0258 4.68313 14.5233 5.10849 14.9418C5.53386 15.3604 6.03944 15.6916 6.59591 15.9164C7.15238 16.1411 7.74866 16.2549 8.35016 16.2511C8.95166 16.2473 9.54641 16.126 10.0999 15.8943C10.6534 15.6625 11.1546 15.3249 11.5745 14.901L16.0829 10.4651C16.4337 10.1199 16.9965 10.12 17.3472 10.4651V10.4651C17.706 10.8182 17.706 11.3968 17.3472 11.7499L12.8594 16.1664C12.2687 16.7477 11.5675 17.2089 10.7957 17.5235C10.0239 17.8381 9.19668 18 8.3613 18C7.52592 18 6.69873 17.8381 5.92694 17.5235C5.15515 17.2089 4.45388 16.7477 3.86318 16.1664C3.27248 15.5851 2.80391 14.895 2.48423 14.1355C2.16454 13.3759 2 12.5619 2 11.7398C2 10.9177 2.16454 10.1036 2.48423 9.34411C2.80391 8.58459 3.27248 7.89447 3.86318 7.31315L9.00467 2.25516C9.86159 1.44067 11.0093 0.989981 12.2006 1.00017C13.3919 1.01036 14.5315 1.4806 15.3739 2.30963C16.2163 3.13865 16.6942 4.26012 16.7045 5.4325C16.7149 6.60487 16.2569 7.73434 15.4293 8.57765L10.2896 13.6383C10.0364 13.8875 9.73575 14.0851 9.40492 14.2199C9.07408 14.3547 8.71951 14.4241 8.36144 14.424C8.00336 14.424 7.6488 14.3545 7.318 14.2197C6.9872 14.0848 6.68664 13.8871 6.43347 13.6379C6.1803 13.3887 5.97949 13.0928 5.8425 12.7673C5.70551 12.4417 5.63503 12.0928 5.63507 11.7404C5.63511 11.388 5.70568 11.0391 5.84275 10.7135C5.97982 10.388 6.1807 10.0922 6.43393 9.84304L10.9423 5.40631C11.2931 5.0611 11.8559 5.0611 12.2067 5.40631V5.40631Z" fill="#00244A"/>
</g>
</svg>
