<svg width="18" height="18" viewBox="0 0 18 18" fill="none" xmlns="http://www.w3.org/2000/svg">
<path d="M14.95 0.500031H3.05C1.64368 0.500031 0.5 1.64371 0.5 3.05003V14.95C0.5 16.3564 1.64368 17.5 3.05 17.5H14.95C16.3563 17.5 17.5 16.3564 17.5 14.95V3.05003C17.5 1.64371 16.3559 0.500031 14.95 0.500031ZM15.6946 15.3512L11.8369 11.6146L13.2475 10.2036C13.4757 9.97583 13.8735 9.97583 14.1017 10.2036L15.8 11.9019V14.95C15.8 15.0958 15.7596 15.231 15.6946 15.3512ZM3.05 2.20003H14.95C15.4188 2.20003 15.8 2.58126 15.8 3.05003V9.49813L15.3036 9.00173C14.406 8.10328 12.944 8.10328 12.0456 9.00173L10.6159 10.4319L8.07903 7.97493C7.18058 7.07648 5.71943 7.07691 4.8401 7.95623L2.2 10.4357V3.05003C2.2 2.58083 2.58123 2.20003 3.05 2.20003ZM2.2 14.95V12.7677L6.02288 9.17683C6.2511 8.94903 6.63913 8.93926 6.88648 9.18618L13.7145 15.8H3.05C2.58123 15.8 2.2 15.4188 2.2 14.95Z" fill="#00244A"/>
<path d="M11.125 7.30003C11.8292 7.30003 12.4 6.72919 12.4 6.02503C12.4 5.32087 11.8292 4.75003 11.125 4.75003C10.4208 4.75003 9.85 5.32087 9.85 6.02503C9.85 6.72919 10.4208 7.30003 11.125 7.30003Z" fill="#00244A"/>
</svg>
