<svg width="36" height="28" viewBox="0 0 36 28" fill="none" xmlns="http://www.w3.org/2000/svg">
<path d="M32.2859 27.9996C33.8711 27.9996 35.1563 26.7177 35.1563 25.1363C35.1563 23.5549 33.8711 22.2729 32.2859 22.2729C30.7006 22.2729 29.4155 23.5549 29.4155 25.1363C29.4155 26.7177 30.7006 27.9996 32.2859 27.9996Z" fill="black"/>
<path d="M34.969 5.37645V20.6198H29.6225V7.85311L22.5653 18.0831C22.0581 18.8216 21.3271 19.3787 20.4795 19.6727C19.6318 19.9667 18.7121 19.9821 17.855 19.7168C16.998 19.4514 16.2486 18.9192 15.7168 18.1981C15.185 17.477 14.8987 16.605 14.8998 15.7098V9.07311L6.58613 20.6164H0L11.5349 4.59645C12.1286 3.77145 12.9694 3.15569 13.9363 2.83787C14.9032 2.52005 15.9463 2.51655 16.9153 2.8279C17.8843 3.13924 18.7293 3.74935 19.3285 4.57036C19.9277 5.39136 20.2502 6.3809 20.2496 7.39645V12.0298L26.6185 2.78645C27.1716 1.98162 27.9685 1.37466 28.8925 1.05453C29.8165 0.734396 30.819 0.717925 31.7531 1.00753C32.6872 1.29713 33.5037 1.87758 34.0831 2.6638C34.6624 3.45003 34.974 4.40068 34.9723 5.37645H34.969Z" fill="black"/>
</svg>
