<svg width="64" height="64" viewBox="0 0 64 64" fill="none" xmlns="http://www.w3.org/2000/svg">
<g filter="url(#filter0_d)">
<path d="M12 28C12 16.9543 20.9543 8 32 8C43.0457 8 52 16.9543 52 28C52 39.0457 43.0457 48 32 48C20.9543 48 12 39.0457 12 28Z" fill="#00244A"/>
<path d="M26.1667 23.3333C26.1667 23.7936 25.7936 24.1667 25.3333 24.1667C24.8731 24.1667 24.5 23.7936 24.5 23.3333C24.5 22.8731 24.8731 22.5 25.3333 22.5C25.7936 22.5 26.1667 22.8731 26.1667 23.3333Z" fill="white" stroke="white"/>
<path d="M25.3333 29.111C26.0697 29.111 26.6667 28.514 26.6667 27.7777C26.6667 27.0413 26.0697 26.4443 25.3333 26.4443C24.597 26.4443 24 27.0413 24 27.7777C24 28.514 24.597 29.111 25.3333 29.111Z" fill="white"/>
<path d="M30.0838 24.6667H38.5863C38.8737 24.6667 39.1493 24.5262 39.3526 24.2761C39.5558 24.0261 39.67 23.687 39.67 23.3333C39.67 22.9797 39.5558 22.6406 39.3526 22.3905C39.1493 22.1405 38.8737 22 38.5863 22H30.0838C29.7963 22 29.5207 22.1405 29.3174 22.3905C29.1142 22.6406 29 22.9797 29 23.3333C29 23.687 29.1142 24.0261 29.3174 24.2761C29.5207 24.5262 29.7963 24.6667 30.0838 24.6667Z" fill="white"/>
<path d="M36.5862 26.4444H30.0838C29.7963 26.4444 29.5207 26.5849 29.3174 26.835C29.1142 27.085 29 27.4242 29 27.7778C29 28.1314 29.1142 28.4705 29.3174 28.7206C29.5207 28.9706 29.7963 29.1111 30.0838 29.1111H36.5862C36.8737 29.1111 37.1493 28.9706 37.3526 28.7206C37.5558 28.4705 37.67 28.1314 37.67 27.7778C37.67 27.4242 37.5558 27.085 37.3526 26.835C37.1493 26.5849 36.8737 26.4444 36.5862 26.4444Z" fill="white"/>
<path d="M34.5862 30.8889H30.0838C29.7963 30.8889 29.5207 31.0294 29.3174 31.2794C29.1142 31.5295 29 31.8686 29 32.2222C29 32.5758 29.1142 32.915 29.3174 33.165C29.5207 33.4151 29.7963 33.5556 30.0838 33.5556H34.5862C34.8737 33.5556 35.1493 33.4151 35.3526 33.165C35.5558 32.915 35.67 32.5758 35.67 32.2222C35.67 31.8686 35.5558 31.5295 35.3526 31.2794C35.1493 31.0294 34.8737 30.8889 34.5862 30.8889Z" fill="white"/>
</g>
<defs>
<filter id="filter0_d" x="0" y="0" width="64" height="64" filterUnits="userSpaceOnUse" color-interpolation-filters="sRGB">
<feFlood flood-opacity="0" result="BackgroundImageFix"/>
<feColorMatrix in="SourceAlpha" type="matrix" values="0 0 0 0 0 0 0 0 0 0 0 0 0 0 0 0 0 0 127 0" result="hardAlpha"/>
<feOffset dy="4"/>
<feGaussianBlur stdDeviation="6"/>
<feComposite in2="hardAlpha" operator="out"/>
<feColorMatrix type="matrix" values="0 0 0 0 0 0 0 0 0 0.141176 0 0 0 0 0.290196 0 0 0 0.25 0"/>
<feBlend mode="normal" in2="BackgroundImageFix" result="effect1_dropShadow"/>
<feBlend mode="normal" in="SourceGraphic" in2="effect1_dropShadow" result="shape"/>
</filter>
</defs>
</svg>
