<svg width="18" height="18" viewBox="0 0 18 18" fill="none" xmlns="http://www.w3.org/2000/svg">
<path d="M0.598558 16.2394L0.598566 16.2394C1.3043 14.8648 1.74107 13.7686 1.86959 13.0259L1.90374 12.8286L1.79224 12.6623C0.953047 11.4103 0.5 9.95571 0.5 8.43705C0.5 4.05269 4.26013 0.5 9 0.5C13.7399 0.5 17.5 4.05269 17.5 8.43705C17.5 12.8214 13.7399 16.3741 9 16.3741C8.0488 16.3741 7.12309 16.231 6.24905 15.955L5.97439 15.8683L5.76158 16.0624C4.79484 16.944 3.33744 17.437 1.33929 17.4996C1.20116 17.504 1.06356 17.4712 0.939761 17.4037L0.702473 17.8382L0.93976 17.4036C0.543291 17.1872 0.379271 16.6664 0.598558 16.2394ZM1.89943 15.56L1.51302 16.3487L2.38844 16.2784C3.95993 16.1522 5.16039 15.6882 5.9006 14.8251C5.97402 14.7395 6.08344 14.7146 6.17749 14.7503C7.06145 15.0858 8.01393 15.2599 8.9967 15.2599C13.0655 15.2599 16.3534 12.2521 16.3534 8.47496C16.3534 4.69786 13.0655 1.69 8.9967 1.69C4.92792 1.69 1.64001 4.69786 1.64001 8.47496C1.64001 9.8523 2.0811 11.1661 2.89375 12.2781C2.93302 12.3318 2.95406 12.4003 2.95047 12.4715C2.916 13.1551 2.58757 14.1555 1.89943 15.56ZM0.153927 16.0111L0.153769 16.011L0.153927 16.0111Z" fill="#00244A" stroke="#00244A"/>
</svg>
