<svg width="24" height="24" viewBox="0 0 24 24" fill="none" xmlns="http://www.w3.org/2000/svg">
<path d="M20.83 3.44C20.7383 3.30429 20.6146 3.19319 20.4699 3.11647C20.3252 3.03975 20.1638 2.99975 20 3H6C5.73478 3 5.48043 3.10536 5.29289 3.29289C5.10536 3.48043 5 3.73478 5 4V20C5 20.2652 5.10536 20.5196 5.29289 20.7071C5.48043 20.8946 5.73478 21 6 21C6.26522 21 6.51957 20.8946 6.70711 20.7071C6.89464 20.5196 7 20.2652 7 20V15H20C20.1634 15.0002 20.3243 14.9603 20.4687 14.8839C20.6131 14.8075 20.7366 14.6968 20.8283 14.5617C20.9201 14.4265 20.9773 14.2709 20.9951 14.1085C21.0128 13.9461 20.9904 13.7818 20.93 13.63L19.08 9L20.93 4.37C20.9904 4.21858 21.0129 4.05468 20.9954 3.89259C20.978 3.7305 20.9212 3.57512 20.83 3.44ZM17.07 9.37L18.52 13H7V5H18.52L17.07 8.63C16.9754 8.86759 16.9754 9.13241 17.07 9.37Z" fill="#00244A"/>
<path d="M14.2899 6.29003L10.9999 9.59003L9.70994 8.29003C9.52164 8.10172 9.26624 7.99594 8.99994 7.99594C8.73364 7.99594 8.47825 8.10172 8.28994 8.29003C8.10164 8.47833 7.99585 8.73373 7.99585 9.00003C7.99585 9.26633 8.10164 9.52172 8.28994 9.71003L10.2899 11.71C10.4773 11.8963 10.7308 12.0008 10.9949 12.0008C11.2591 12.0008 11.5126 11.8963 11.6999 11.71L15.6999 7.71003C15.8638 7.51873 15.9494 7.27265 15.9397 7.02097C15.9299 6.7693 15.8256 6.53056 15.6475 6.35246C15.4694 6.17437 15.2307 6.07004 14.979 6.06032C14.7273 6.05059 14.4812 6.1362 14.2899 6.30003V6.29003Z" fill="#00244A"/>
</svg>
