<svg width="20" height="20" viewBox="0 0 20 20" fill="none" xmlns="http://www.w3.org/2000/svg">
<path d="M10.0041 0.100098C14.0194 0.100098 16.9 3.37841 16.9 7.63168V9.23133C16.9 9.46003 17.0932 9.76314 17.6205 10.3071C17.6881 10.3769 17.7518 10.4416 17.8909 10.5824C18.9721 11.6791 19.4 12.3109 19.4 13.3273C19.4 13.7718 19.3481 14.1183 19.1323 14.5336C18.6761 15.4111 17.7089 15.9001 16.2631 15.9001L14.3514 15.9011C13.7221 18.2336 12.2209 19.5003 9.99998 19.5003C7.75537 19.5003 6.24589 18.2065 5.62878 15.8262L5.64798 15.9001H3.73682C2.24886 15.9001 1.27132 15.3978 0.834638 14.4895C0.643682 14.0923 0.599976 13.7699 0.599976 13.3273C0.599976 12.3109 1.02785 11.6791 2.1091 10.5824C2.24817 10.4416 2.31184 10.3769 2.37946 10.3071C2.90673 9.76314 3.09998 9.46003 3.09998 9.23133V7.63168C3.09998 3.38007 5.98769 0.100098 10.0041 0.100098ZM12.4659 15.902H7.53401C7.98996 17.1486 8.77575 17.7003 9.99998 17.7003C11.2242 17.7003 12.01 17.1486 12.4659 15.902ZM10.0041 1.9001C7.03644 1.9001 4.89998 4.32677 4.89998 7.63168V9.23133C4.89998 10.0839 4.51053 10.6947 3.67198 11.5599C3.59872 11.6355 3.52956 11.7057 3.39086 11.8462C2.64397 12.6037 2.39998 12.964 2.39998 13.3273C2.39998 13.5194 2.41352 13.6193 2.4569 13.7096C2.5642 13.9327 2.88988 14.1001 3.73682 14.1001H16.2631C17.0832 14.1001 17.4165 13.9316 17.5352 13.7033C17.5846 13.6082 17.6 13.5056 17.6 13.3273C17.6 12.964 17.356 12.6037 16.6091 11.8462C16.4704 11.7057 16.4012 11.6355 16.328 11.5599C15.4894 10.6947 15.1 10.0839 15.1 9.23133V7.63168C15.1 4.32445 12.9697 1.9001 10.0041 1.9001Z" fill="#00244A"/>
</svg>
