<svg width="24" height="24" viewBox="0 0 24 24" fill="none" xmlns="http://www.w3.org/2000/svg">
<path d="M10.5379 5.44143C10.0903 6.23301 10.2932 8.02686 11.1065 9.85858C10.8232 10.735 10.5029 11.6195 10.0994 12.6193C9.76499 13.4483 9.36547 14.296 8.94322 15.0739C6.63675 16.0152 5.16975 17.0818 5.01473 17.9307C4.96285 18.2159 5.04791 18.4888 5.27149 18.7039C5.4044 18.8317 5.68831 19 6.10332 19C7.42937 19 8.90522 17.0044 10.0127 14.9595C10.628 14.7403 11.2706 14.5373 11.9373 14.3558C12.656 14.16 13.3503 14.0028 14.0021 13.8875C15.6063 15.3788 17.0222 15.6031 17.7279 15.6031C18.6084 15.6031 18.8589 15.2279 18.9466 14.9889C19.0735 14.6427 18.9571 14.26 18.7771 14.0613C18.3754 13.6174 17.5331 13.3834 16.3412 13.3834C15.6776 13.3834 14.9192 13.4548 14.0856 13.5961C13.6038 13.1346 13.1359 12.5816 12.695 11.9517C12.3773 11.4982 12.0891 11.032 11.8332 10.5581C12.2552 9.21434 12.5496 7.92504 12.5496 6.94471C12.5496 6.20901 12.3208 5 11.2577 5C10.9807 5 10.6879 5.17632 10.5379 5.44143ZM10.7671 5.57884C10.8747 5.38865 11.0526 5.27193 11.2449 5.27193C11.639 5.27193 11.8553 5.63079 11.8575 6.28496C11.8597 6.98983 11.6388 8.1471 11.2296 9.46786C10.4599 7.6171 10.4498 6.13947 10.7671 5.57884ZM11 12.8749C11.2573 12.2358 11.5038 11.5676 11.7218 10.9037C11.9528 11.3136 12.2042 11.7176 12.4798 12.1112C12.8862 12.6924 13.3159 13.2095 13.7588 13.6526L13.7538 13.6536L13.7554 13.6553C13.1552 13.7677 12.5223 13.9144 11.8694 14.092C11.2951 14.2482 10.7386 14.4212 10.2009 14.6054C10.5136 14.0017 10.7858 13.4072 11 12.8749ZM16.8165 15.2085C15.8158 14.9628 14.9982 14.4119 14.3403 13.8308C15.6913 13.5785 16.8764 13.624 17.3851 13.7335C17.9035 13.8444 18.1838 14.1667 18.0945 14.6431C18.0223 15.0288 17.6525 15.2552 17.1907 15.2552C17.0708 15.2552 16.945 15.2397 16.8165 15.2085ZM5.45165 18.5037C5.29381 18.3514 5.23993 18.1749 5.27511 17.9812C5.4046 17.2718 6.71698 16.3177 8.73009 15.4572C7.60772 17.4301 6.50425 18.6397 5.81277 18.6397C5.67765 18.6397 5.54957 18.5985 5.45165 18.5037Z" stroke="#00244A" stroke-linecap="round" stroke-linejoin="round"/>
<rect x="3" y="3" width="18" height="18" rx="2" stroke="#00244A" stroke-width="2" stroke-linecap="round" stroke-linejoin="round"/>
</svg>
