<svg width="24" height="24" viewBox="0 0 24 24" fill="none" xmlns="http://www.w3.org/2000/svg">
<rect width="24" height="24" rx="8" fill="#FF5C5C"/>
<path d="M8.54188 10.632C8.94188 10.632 9.30454 10.7253 9.62988 10.912C9.96054 11.0933 10.2192 11.352 10.4059 11.688C10.5925 12.0187 10.6859 12.4053 10.6859 12.848C10.6859 13.2907 10.5925 13.68 10.4059 14.016C10.2192 14.3467 9.96054 14.6053 9.62988 14.792C9.30454 14.9733 8.94188 15.064 8.54188 15.064C7.99254 15.064 7.56054 14.8907 7.24588 14.544V16.552H5.99788V10.696H7.18988V11.192C7.49921 10.8187 7.94988 10.632 8.54188 10.632ZM8.32588 14.04C8.64588 14.04 8.90721 13.9333 9.10988 13.72C9.31788 13.5013 9.42188 13.2107 9.42188 12.848C9.42188 12.4853 9.31788 12.1973 9.10988 11.984C8.90721 11.7653 8.64588 11.656 8.32588 11.656C8.00588 11.656 7.74188 11.7653 7.53387 11.984C7.33121 12.1973 7.22988 12.4853 7.22988 12.848C7.22988 13.2107 7.33121 13.5013 7.53387 13.72C7.74188 13.9333 8.00588 14.04 8.32588 14.04ZM15.9053 9.064V15H14.7133V14.504C14.404 14.8773 13.956 15.064 13.3693 15.064C12.964 15.064 12.596 14.9733 12.2653 14.792C11.94 14.6107 11.684 14.352 11.4973 14.016C11.3106 13.68 11.2173 13.2907 11.2173 12.848C11.2173 12.4053 11.3106 12.016 11.4973 11.68C11.684 11.344 11.94 11.0853 12.2653 10.904C12.596 10.7227 12.964 10.632 13.3693 10.632C13.9186 10.632 14.348 10.8053 14.6573 11.152V9.064H15.9053ZM13.5853 14.04C13.9 14.04 14.1613 13.9333 14.3693 13.72C14.5773 13.5013 14.6813 13.2107 14.6813 12.848C14.6813 12.4853 14.5773 12.1973 14.3693 11.984C14.1613 11.7653 13.9 11.656 13.5853 11.656C13.2653 11.656 13.0013 11.7653 12.7933 11.984C12.5853 12.1973 12.4813 12.4853 12.4813 12.848C12.4813 13.2107 12.5853 13.5013 12.7933 13.72C13.0013 13.9333 13.2653 14.04 13.5853 14.04ZM18.4284 10.792H19.5324V11.752H18.4604V15H17.2124V11.752H16.5484V10.792H17.2124V10.6C17.2124 10.1093 17.3564 9.72 17.6444 9.432C17.9377 9.144 18.3484 9 18.8764 9C19.063 9 19.239 9.02133 19.4044 9.064C19.575 9.10133 19.7164 9.15733 19.8284 9.232L19.5004 10.136C19.3564 10.0347 19.1884 9.984 18.9964 9.984C18.6177 9.984 18.4284 10.192 18.4284 10.608V10.792Z" fill="white"/>
</svg>
