<svg width="64" height="64" viewBox="0 0 64 64" fill="none" xmlns="http://www.w3.org/2000/svg">
<g filter="url(#filter0_d_3214_20055)">
<path d="M12 28C12 16.9543 20.9543 8 32 8C43.0457 8 52 16.9543 52 28C52 39.0457 43.0457 48 32 48C20.9543 48 12 39.0457 12 28Z" fill="#00244A"/>
<path d="M38.4903 29.7116L38.4896 29.711C36.89 28.3662 34.5282 28.533 33.0526 30.0087L32.6388 30.4226C32.2436 30.2144 31.6837 29.7888 30.9477 29.0527C30.2109 28.3159 29.7854 27.7561 29.5782 27.3613L29.9921 26.9479L29.9926 26.9474C31.4681 25.4717 31.6344 23.1085 30.2872 21.5103C30.2871 21.5102 30.287 21.51 30.2869 21.5099L29.5696 20.6573C29.5695 20.6572 29.5694 20.6572 29.5693 20.6571C28.3724 19.2337 26.2576 19.1276 24.8568 20.3186L24.8568 20.3186L24.8517 20.3229C24.3438 20.7607 23.962 21.3261 23.7457 21.9607L23.7457 21.9607L23.745 21.9628C23.6535 22.2333 23.5935 22.5134 23.5663 22.7976C23.1485 25.9645 24.7089 29.1144 27.7973 32.2031C30.8868 35.2928 34.0366 36.8524 37.205 36.4333C38.1621 36.3368 39.0463 35.8775 39.6757 35.1493L39.6758 35.1493L39.6805 35.1437C40.8735 33.743 40.7653 31.6273 39.3439 30.4307C39.3439 30.4307 39.3439 30.4307 39.3438 30.4306C39.3437 30.4305 39.3436 30.4305 39.3435 30.4304L38.4903 29.7116ZM32.4405 30.6209C32.4406 30.6208 32.4407 30.6206 32.4409 30.6205L32.4405 30.6209Z" stroke="white" stroke-width="2"/>
</g>
<defs>
<filter id="filter0_d_3214_20055" x="0" y="0" width="64" height="64" filterUnits="userSpaceOnUse" color-interpolation-filters="sRGB">
<feFlood flood-opacity="0" result="BackgroundImageFix"/>
<feColorMatrix in="SourceAlpha" type="matrix" values="0 0 0 0 0 0 0 0 0 0 0 0 0 0 0 0 0 0 127 0" result="hardAlpha"/>
<feOffset dy="4"/>
<feGaussianBlur stdDeviation="6"/>
<feComposite in2="hardAlpha" operator="out"/>
<feColorMatrix type="matrix" values="0 0 0 0 0 0 0 0 0 0.141176 0 0 0 0 0.290196 0 0 0 0.25 0"/>
<feBlend mode="normal" in2="BackgroundImageFix" result="effect1_dropShadow_3214_20055"/>
<feBlend mode="normal" in="SourceGraphic" in2="effect1_dropShadow_3214_20055" result="shape"/>
</filter>
</defs>
</svg>
