<svg width="24" height="24" viewBox="0 0 24 24" fill="none" xmlns="http://www.w3.org/2000/svg">
<path fill-rule="evenodd" clip-rule="evenodd" d="M9.24925 2.34646C10.1273 2.12047 11.0488 2 11.9999 2C12.951 2 13.8726 2.12049 14.7507 2.34652C15.2856 2.48419 15.8308 2.16221 15.9684 1.62736C16.1061 1.0925 15.7841 0.547319 15.2493 0.409652C14.2096 0.142053 13.1206 0 11.9999 0C10.8792 0 9.79031 0.142027 8.75075 0.409579C8.2159 0.547235 7.8939 1.09241 8.03156 1.62727C8.16922 2.16212 8.71439 2.48411 9.24925 2.34646ZM4 13C4 8.58172 7.58172 5 12 5C16.4183 5 20 8.58172 20 13C20 17.4183 16.4183 21 12 21C7.58172 21 4 17.4183 4 13ZM12 3C6.47715 3 2 7.47715 2 13C2 18.5228 6.47715 23 12 23C17.5228 23 22 18.5228 22 13C22 7.47715 17.5228 3 12 3ZM11 8C11 7.44772 11.4477 7 12 7C12.5523 7 13 7.44772 13 8V12H15C15.5523 12 16 12.4477 16 13C16 13.5523 15.5523 14 15 14H12C11.4477 14 11 13.5523 11 13V8Z" fill="white"/>
</svg>
