<svg width="24" height="24" viewBox="0 0 24 24" fill="none" xmlns="http://www.w3.org/2000/svg">
<path fill-rule="evenodd" clip-rule="evenodd" d="M11.9999 2C11.0488 2 10.1273 2.12047 9.24925 2.34646C8.71439 2.48411 8.16921 2.16212 8.03156 1.62727C7.8939 1.09241 8.2159 0.547235 8.75075 0.409579C9.79031 0.142027 10.8792 0 11.9999 0C13.1206 0 14.2096 0.142053 15.2493 0.409652C15.7841 0.547319 16.1061 1.0925 15.9684 1.62736C15.8308 2.16221 15.2856 2.48419 14.7507 2.34652C13.8726 2.12049 12.951 2 11.9999 2ZM12 5C7.58172 5 4 8.58172 4 13C4 17.4183 7.58172 21 12 21C16.4183 21 20 17.4183 20 13C20 8.58172 16.4183 5 12 5ZM2 13C2 7.47715 6.47715 3 12 3C17.5228 3 22 7.47715 22 13C22 18.5228 17.5228 23 12 23C6.47715 23 2 18.5228 2 13ZM10.53 8.95625C9.86395 8.53997 9 9.01881 9 9.80425V16.1958C9 16.9812 9.86395 17.46 10.53 17.0438L15.6432 13.848C16.2699 13.4563 16.2699 12.5437 15.6432 12.152L10.53 8.95625Z" fill="#04C300"/>
</svg>
