<svg width="32" height="32" viewBox="0 0 32 32" fill="none" xmlns="http://www.w3.org/2000/svg">
<g opacity="0.7">
<path fill-rule="evenodd" clip-rule="evenodd" d="M15.9999 6C15.0488 6 14.1273 6.12047 13.2492 6.34646C12.7144 6.48411 12.1692 6.16212 12.0316 5.62727C11.8939 5.09241 12.2159 4.54723 12.7508 4.40958C13.7903 4.14203 14.8792 4 15.9999 4C17.1206 4 18.2096 4.14205 19.2493 4.40965C19.7841 4.54732 20.1061 5.0925 19.9684 5.62736C19.8308 6.16221 19.2856 6.48419 18.7507 6.34652C17.8726 6.12049 16.951 6 15.9999 6ZM16 9C11.5817 9 8 12.5817 8 17C8 21.4183 11.5817 25 16 25C20.4183 25 24 21.4183 24 17C24 12.5817 20.4183 9 16 9ZM6 17C6 11.4772 10.4772 7 16 7C21.5228 7 26 11.4772 26 17C26 22.5228 21.5228 27 16 27C10.4772 27 6 22.5228 6 17ZM14.53 12.9562C13.864 12.54 13 13.0188 13 13.8042V20.1958C13 20.9812 13.864 21.46 14.53 21.0438L19.6432 17.848C20.2699 17.4563 20.2699 16.5437 19.6432 16.152L14.53 12.9562Z" fill="#00244A"/>
</g>
</svg>
