<svg width="20" height="20" viewBox="0 0 20 20" fill="none" xmlns="http://www.w3.org/2000/svg">
<circle cx="10" cy="10" r="10" fill="#F44336"/>
<path d="M4.14983 13.8165C3.85193 13.3014 4.01208 12.6523 4.50752 12.3667L9.48109 9.50003C9.97654 9.21446 10.6197 9.40055 10.9176 9.91567C11.2155 10.4308 11.0553 11.0799 10.5599 11.3654L5.58631 14.2322C5.09087 14.5177 4.44773 14.3316 4.14983 13.8165Z" fill="white"/>
<path d="M9.11558 9.93477C8.81768 10.4499 8.97782 11.099 9.47327 11.3846L14.4137 14.2322C14.9091 14.5177 15.5523 14.3316 15.8502 13.8165C16.1481 13.3014 15.9879 12.6523 15.4925 12.3667L10.5521 9.51914C10.0566 9.23357 9.41348 9.41965 9.11558 9.93477Z" fill="white"/>
<path d="M4.14983 9.08433C3.85193 8.56921 4.01208 7.92012 4.50752 7.63455L9.48109 4.76783C9.97654 4.48226 10.6197 4.66835 10.9176 5.18347C11.2155 5.69859 11.0553 6.34768 10.5599 6.63325L5.58631 9.49997C5.09087 9.78554 4.44773 9.59945 4.14983 9.08433Z" fill="white"/>
<path d="M9.11558 5.20258C8.81768 5.7177 8.97782 6.36679 9.47327 6.65236L14.4137 9.49997C14.9091 9.78554 15.5523 9.59945 15.8502 9.08433C16.1481 8.56921 15.9879 7.92012 15.4925 7.63455L10.5521 4.78694C10.0566 4.50137 9.41348 4.68746 9.11558 5.20258Z" fill="white"/>
</svg>
