<svg width="20" height="20" viewBox="0 0 20 20" fill="none" xmlns="http://www.w3.org/2000/svg">
<circle cx="10" cy="10" r="10" fill="#FFC107"/>
<path d="M4.14983 11.4539C3.85193 10.9388 4.01208 10.2897 4.50752 10.0041L9.48109 7.13741C9.97654 6.85184 10.6197 7.03793 10.9176 7.55305C11.2155 8.06817 11.0553 8.71726 10.5599 9.00283L5.58631 11.8695C5.09087 12.1551 4.44773 11.969 4.14983 11.4539Z" fill="white"/>
<path d="M9.11558 7.57216C8.81768 8.08728 8.97782 8.73636 9.47327 9.02193L14.4137 11.8695C14.9091 12.1551 15.5523 11.969 15.8502 11.4539C16.1481 10.9388 15.9879 10.2897 15.4925 10.0041L10.5521 7.15652C10.0566 6.87095 9.41348 7.05703 9.11558 7.57216Z" fill="white"/>
</svg>
