<svg width="20" height="18" viewBox="0 0 20 18" fill="none" xmlns="http://www.w3.org/2000/svg">
<path d="M0.500035 14.8993L0.500043 14.8993V14.8966V2C0.500043 1.17157 1.17162 0.5 2.00004 0.5H6.66109L9.22741 2.85141L9.37076 2.98276H9.56519H16.2903C16.5665 2.98276 16.7903 3.20662 16.7903 3.48276V6.82759V7.32759H17.2903H19C19.2761 7.32759 19.5 7.55144 19.5 7.82759V14.5862C19.5 15.3442 19.1718 16.081 18.571 16.6315C17.9687 17.1833 17.1432 17.5 16.2742 17.5H3.07223C2.35428 17.4289 1.69803 17.1182 1.22619 16.6378C0.750702 16.1538 0.496568 15.5333 0.500035 14.8993ZM6.04141 15.9235L5.70223 16.6379H6.49309H16.2742C16.8425 16.6379 17.3954 16.4315 17.8095 16.0521C18.225 15.6714 18.4677 15.1452 18.4677 14.5862V8.68966V8.18966H17.9677H6.77422H6.27422V8.68966L6.27422 14.8966L6.27422 14.8972C6.27465 15.2487 6.19595 15.598 6.04141 15.9235ZM15.2581 7.32759H15.7581V6.82759V4.34483V3.84483H15.2581H8.91961L6.35329 1.49342L6.20994 1.36207H6.01551H3.0323C2.20387 1.36207 1.5323 2.03364 1.5323 2.86207V14.8966C1.5323 15.3732 1.73935 15.8205 2.09134 16.143C2.44187 16.4642 2.90863 16.6379 3.38713 16.6379C3.86564 16.6379 4.3324 16.4642 4.68293 16.143C5.03492 15.8205 5.24197 15.3732 5.24197 14.8966V7.82759C5.24197 7.55144 5.46583 7.32759 5.74197 7.32759H15.2581Z" fill="#00244A" stroke="#00244A"/>
</svg>
