<svg width="24" height="24" viewBox="0 0 24 24" fill="none" xmlns="http://www.w3.org/2000/svg">
<path d="M14.1117 15.259C15.4658 13.9047 17.5977 13.7799 19.0152 14.9717L20.0395 15.8346C21.2085 16.8183 21.3273 18.5917 20.303 19.7944C19.7444 20.4407 18.9581 20.8466 18.1078 20.9278C14.8348 21.3686 11.4013 19.7914 7.80538 16.1952C4.20943 12.5989 2.63137 9.16419 3.07219 5.89191C3.0951 5.63587 3.14831 5.38346 3.23069 5.13996C3.42132 4.5806 3.75783 4.08229 4.20546 3.69651C5.40907 2.67312 7.18129 2.79101 8.16497 3.96103L9.02681 4.98541C10.2205 6.40113 10.0967 8.5341 8.74251 9.88839L8.00746 10.6225C7.81149 10.8188 7.74733 11.1111 7.84302 11.3715C8.11049 12.1026 8.79303 13.016 9.88865 14.1117C10.9853 15.2085 11.8986 15.8901 12.6287 16.1585C12.8893 16.254 13.1815 16.1894 13.3776 15.9931L14.1117 15.259Z" stroke="#00244A" stroke-width="2"/>
</svg>
