<svg width="24" height="24" viewBox="0 0 24 24" fill="none" xmlns="http://www.w3.org/2000/svg">
<g opacity="0.5">
<rect x="13" y="9" width="7" height="4" rx="2" fill="#00244A"/>
<rect x="13" y="15.5" width="7" height="4" rx="2" fill="#00244A"/>
<path fill-rule="evenodd" clip-rule="evenodd" d="M5 3C5.55228 3 6 3.44772 6 4V11.0383C6 13.9553 8.36471 16.32 11.2817 16.32C11.834 16.32 12.2817 16.7677 12.2817 17.32C12.2817 17.8723 11.834 18.32 11.2817 18.32C7.26014 18.32 4 15.0599 4 11.0383V4C4 3.44772 4.44772 3 5 3Z" fill="#00244A"/>
<path fill-rule="evenodd" clip-rule="evenodd" d="M5 3C5.55228 3 6 3.44772 6 4V5C6 7.76142 8.23858 10 11 10C11.5523 10 12 10.4477 12 11C12 11.5523 11.5523 12 11 12C7.13401 12 4 8.86599 4 5V4C4 3.44772 4.44772 3 5 3Z" fill="#00244A"/>
</g>
</svg>
