<svg width="24" height="24" viewBox="0 0 24 24" fill="none" xmlns="http://www.w3.org/2000/svg">
<rect width="24" height="24" rx="8" fill="#8753BF"/>
<path d="M5.817 16.108C5.319 16.108 4.836 16.042 4.368 15.91C3.906 15.772 3.534 15.595 3.252 15.379L3.747 14.281C4.017 14.479 4.338 14.638 4.71 14.758C5.082 14.878 5.454 14.938 5.826 14.938C6.24 14.938 6.546 14.878 6.744 14.758C6.942 14.632 7.041 14.467 7.041 14.263C7.041 14.113 6.981 13.99 6.861 13.894C6.747 13.792 6.597 13.711 6.411 13.651C6.231 13.591 5.985 13.525 5.673 13.453C5.193 13.339 4.8 13.225 4.494 13.111C4.188 12.997 3.924 12.814 3.702 12.562C3.486 12.31 3.378 11.974 3.378 11.554C3.378 11.188 3.477 10.858 3.675 10.564C3.873 10.264 4.17 10.027 4.566 9.853C4.968 9.679 5.457 9.592 6.033 9.592C6.435 9.592 6.828 9.64 7.212 9.736C7.596 9.832 7.932 9.97 8.22 10.15L7.77 11.257C7.188 10.927 6.606 10.762 6.024 10.762C5.616 10.762 5.313 10.828 5.115 10.96C4.923 11.092 4.827 11.266 4.827 11.482C4.827 11.698 4.938 11.86 5.16 11.968C5.388 12.07 5.733 12.172 6.195 12.274C6.675 12.388 7.068 12.502 7.374 12.616C7.68 12.73 7.941 12.91 8.157 13.156C8.379 13.402 8.49 13.735 8.49 14.155C8.49 14.515 8.388 14.845 8.184 15.145C7.986 15.439 7.686 15.673 7.284 15.847C6.882 16.021 6.393 16.108 5.817 16.108ZM15.1833 9.7L12.4563 16H11.0163L8.29826 9.7H9.87326L11.7903 14.2L13.7343 9.7H15.1833ZM19.5272 12.751H20.8592V15.307C20.5172 15.565 20.1212 15.763 19.6712 15.901C19.2212 16.039 18.7682 16.108 18.3122 16.108C17.6582 16.108 17.0702 15.97 16.5482 15.694C16.0262 15.412 15.6152 15.025 15.3152 14.533C15.0212 14.035 14.8742 13.474 14.8742 12.85C14.8742 12.226 15.0212 11.668 15.3152 11.176C15.6152 10.678 16.0292 10.291 16.5572 10.015C17.0852 9.733 17.6792 9.592 18.3392 9.592C18.8912 9.592 19.3922 9.685 19.8422 9.871C20.2922 10.057 20.6702 10.327 20.9762 10.681L20.0402 11.545C19.5902 11.071 19.0472 10.834 18.4112 10.834C18.0092 10.834 17.6522 10.918 17.3402 11.086C17.0282 11.254 16.7852 11.491 16.6112 11.797C16.4372 12.103 16.3502 12.454 16.3502 12.85C16.3502 13.24 16.4372 13.588 16.6112 13.894C16.7852 14.2 17.0252 14.44 17.3312 14.614C17.6432 14.782 17.9972 14.866 18.3932 14.866C18.8132 14.866 19.1912 14.776 19.5272 14.596V12.751Z" fill="white"/>
</svg>
