<svg width="20" height="20" viewBox="0 0 20 20" fill="none" xmlns="http://www.w3.org/2000/svg">
<path d="M10.3636 6.36364C10.3636 5.91177 9.99732 5.54545 9.54545 5.54545C9.09359 5.54545 8.72727 5.91177 8.72727 6.36364V10.4545C8.72727 10.7956 8.93883 11.1009 9.25817 11.2206L12.8945 12.5843C13.3176 12.7429 13.7892 12.5286 13.9479 12.1055C14.1066 11.6824 13.8922 11.2108 13.4691 11.0521L10.3636 9.88755V6.36364Z" fill="#00244A"/>
<path fill-rule="evenodd" clip-rule="evenodd" d="M10 1C5.02944 1 1 5.02944 1 10C1 14.9706 5.02944 19 10 19C14.9706 19 19 14.9706 19 10C19 5.02944 14.9706 1 10 1ZM2.63636 10C2.63636 5.93318 5.93318 2.63636 10 2.63636C14.0668 2.63636 17.3636 5.93318 17.3636 10C17.3636 14.0668 14.0668 17.3636 10 17.3636C5.93318 17.3636 2.63636 14.0668 2.63636 10Z" fill="#00244A"/>
<path d="M10.3636 6.36364C10.3636 5.91177 9.99732 5.54545 9.54545 5.54545C9.09359 5.54545 8.72727 5.91177 8.72727 6.36364V10.4545C8.72727 10.7956 8.93883 11.1009 9.25817 11.2206L12.8945 12.5843C13.3176 12.7429 13.7892 12.5286 13.9479 12.1055C14.1066 11.6824 13.8922 11.2108 13.4691 11.0521L10.3636 9.88755V6.36364Z" stroke="#00244A" stroke-width="0.3"/>
<path fill-rule="evenodd" clip-rule="evenodd" d="M10 1C5.02944 1 1 5.02944 1 10C1 14.9706 5.02944 19 10 19C14.9706 19 19 14.9706 19 10C19 5.02944 14.9706 1 10 1ZM2.63636 10C2.63636 5.93318 5.93318 2.63636 10 2.63636C14.0668 2.63636 17.3636 5.93318 17.3636 10C17.3636 14.0668 14.0668 17.3636 10 17.3636C5.93318 17.3636 2.63636 14.0668 2.63636 10Z" stroke="#00244A" stroke-width="0.3"/>
</svg>
