<svg width="20" height="23" viewBox="0 0 20 23" fill="none" xmlns="http://www.w3.org/2000/svg">
<path fill-rule="evenodd" clip-rule="evenodd" d="M7.24925 2.34646C8.12733 2.12047 9.0488 2 9.99987 2C10.951 2 11.8726 2.12049 12.7507 2.34652C13.2856 2.48419 13.8308 2.16221 13.9684 1.62736C14.1061 1.0925 13.7841 0.547319 13.2493 0.409652C12.2096 0.142053 11.1206 0 9.99987 0C8.87923 0 7.79031 0.142027 6.75075 0.409579C6.2159 0.547235 5.8939 1.09241 6.03156 1.62727C6.16922 2.16212 6.71439 2.48411 7.24925 2.34646ZM2 13C2 8.58172 5.58172 5 10 5C14.4183 5 18 8.58172 18 13C18 17.4183 14.4183 21 10 21C5.58172 21 2 17.4183 2 13ZM10 3C4.47715 3 0 7.47715 0 13C0 18.5228 4.47715 23 10 23C15.5228 23 20 18.5228 20 13C20 7.47715 15.5228 3 10 3ZM9 8C9 7.44772 9.44771 7 10 7C10.5523 7 11 7.44772 11 8V12H13C13.5523 12 14 12.4477 14 13C14 13.5523 13.5523 14 13 14H10C9.44771 14 9 13.5523 9 13V8Z" fill="#00244A"/>
</svg>
