<svg width="24" height="24" viewBox="0 0 24 24" fill="none" xmlns="http://www.w3.org/2000/svg">
<path d="M11.8722 4C13.6553 4 14.3018 4.18565 14.9537 4.53427C15.6055 4.88288 16.1171 5.39446 16.4657 6.04631C16.6979 6.4805 16.8578 6.91234 16.9387 7.67925L18.9455 6.42557C20.1866 5.64988 21.8215 6.02717 22.5972 7.26826C22.8604 7.68943 23 8.1761 23 8.67276V15.3272C23 16.7908 21.8136 17.9772 20.35 17.9772C19.8533 17.9772 19.3667 17.8377 18.9455 17.5744L16.9387 16.3208C16.8578 17.0877 16.6979 17.5195 16.4657 17.9537C16.1171 18.6055 15.6055 19.1171 14.9537 19.4657C14.3018 19.8143 13.6553 20 11.8722 20H6.12777C4.34473 20 3.69816 19.8143 3.04631 19.4657C2.39446 19.1171 1.88288 18.6055 1.53427 17.9537C1.18565 17.3018 1 16.6553 1 14.8722V9.12777C1 7.34473 1.18565 6.69816 1.53427 6.04631C1.88288 5.39446 2.39446 4.88288 3.04631 4.53427C3.69816 4.18565 4.34473 4 6.12777 4H11.8722ZM12.1099 6.00093L6.12777 6C4.80407 6 4.40096 6.07784 3.98951 6.29789C3.68619 6.46011 3.46011 6.68619 3.29789 6.98951C3.0916 7.37525 3.01029 7.75365 3.00093 8.89014L3 14.8722C3 16.1959 3.07784 16.599 3.29789 17.0105C3.46011 17.3138 3.68619 17.5399 3.98951 17.7021C4.40096 17.9222 4.80407 18 6.12777 18H11.8722C13.1959 18 13.599 17.9222 14.0105 17.7021C14.3138 17.5399 14.5399 17.3138 14.7021 17.0105C14.9222 16.599 15 16.1959 15 14.8722V9.12777C15 7.80407 14.9222 7.40096 14.7021 6.98951C14.5399 6.68619 14.3138 6.46011 14.0105 6.29789C13.6248 6.0916 13.2464 6.01029 12.1099 6.00093ZM20.0055 8.12156L17 10V14L20.0055 15.8784C20.1088 15.943 20.2282 15.9772 20.35 15.9772C20.709 15.9772 21 15.6862 21 15.3272V8.67276C21 8.55094 20.9658 8.43157 20.9012 8.32826C20.7109 8.02384 20.3099 7.9313 20.0055 8.12156Z" fill="#00244A"/>
</svg>
