<svg width="20" height="16" viewBox="0 0 20 16" fill="none" xmlns="http://www.w3.org/2000/svg">
<path fill-rule="evenodd" clip-rule="evenodd" d="M17.6632 2H2.33684C2.1572 2 2 2.1572 2 2.33684V13.2632C2 13.4428 2.1572 13.6 2.33684 13.6H17.6632C17.8428 13.6 18 13.4428 18 13.2632V2.35789C18 2.14551 17.8311 2 17.6632 2ZM2.33684 0H17.6632C18.9474 0 20 1.05263 20 2.35789V13.2632C20 14.5474 18.9474 15.6 17.6632 15.6H2.33684C1.05263 15.6 0 14.5474 0 13.2632V2.33684C0 1.05263 1.05263 0 2.33684 0Z" fill="#00244A"/>
<path d="M13.3677 6.68025L9.07742 4.00809C8.67097 3.73863 8.12903 3.73863 7.7 3.96318C7.27097 4.21019 7 4.65929 7 5.13085V10.4752C7 10.9692 7.27097 11.4183 7.7 11.6428C7.90323 11.7551 8.12903 11.8 8.35484 11.8C8.60323 11.8 8.85161 11.7326 9.07742 11.5979L13.3677 8.92575C13.7742 8.67875 14 8.2521 14 7.78054C14 7.3539 13.7516 6.92725 13.3677 6.68025ZM8.55806 10.1159V5.53504L12.2387 7.82545L8.55806 10.1159Z" fill="#00244A"/>
<path fill-rule="evenodd" clip-rule="evenodd" d="M9.21246 3.79768L13.503 6.46999C13.9507 6.75804 14.25 7.26009 14.25 7.78054C14.25 8.33405 13.9832 8.84371 13.4988 9.13866L9.20554 11.8126C8.94151 11.9702 8.64892 12.05 8.35484 12.05C8.09731 12.05 7.82879 11.9989 7.58158 11.863C7.07038 11.5943 6.75 11.0599 6.75 10.4752V5.13085C6.75 4.56356 7.07436 4.03491 7.57526 3.74652L7.58398 3.74151C8.0828 3.48043 8.72156 3.47403 9.21246 3.79768ZM7.82038 4.18236C7.46581 4.38848 7.25 4.75655 7.25 5.13085V10.4752C7.25 10.8775 7.47051 11.2405 7.81593 11.4213L7.82092 11.4239C7.97949 11.5115 8.16162 11.55 8.35484 11.55C8.55682 11.55 8.76031 11.4955 8.94736 11.3844L13.2379 8.7121C13.5656 8.51293 13.75 8.16969 13.75 7.78054C13.75 7.44821 13.5531 7.09751 13.2339 6.89143L8.93922 4.21655C8.61896 4.00422 8.17779 3.99726 7.82038 4.18236ZM8.30806 5.08501L12.7119 7.82545L8.30806 10.5659V5.08501ZM8.80807 5.98506V9.66585L11.7655 7.82545L8.80807 5.98506Z" fill="#00244A"/>
</svg>
