<svg width="109" height="23" viewBox="0 0 109 23" fill="none" xmlns="http://www.w3.org/2000/svg">
<path d="M0.694824 7.38672H6.04124V22.6167H0.694824V7.38672Z" fill="black"/>
<path d="M24.0288 8.82012C25.1827 9.94234 25.7597 11.6379 25.7597 13.9068V22.6168H20.4133V14.7768C20.4133 12.6968 19.5779 11.6579 17.9071 11.6601C17.4955 11.6425 17.0849 11.7134 16.7032 11.8681C16.3215 12.0228 15.9777 12.2577 15.6951 12.5568C15.1404 13.1568 14.863 14.0557 14.863 15.2535V22.6168H9.5166V7.38679H14.6124V9.05345C15.2161 8.43242 15.9466 7.94814 16.7543 7.63345C17.616 7.30023 18.5335 7.13393 19.4576 7.14345C21.3511 7.13901 22.8749 7.6979 24.0288 8.82012Z" fill="black"/>
<path d="M39.6434 22C39.1345 22.3062 38.5776 22.5248 37.996 22.6467C37.3175 22.8006 36.6235 22.8767 35.9276 22.8733C33.9361 22.8733 32.4057 22.3856 31.3364 21.41C30.2671 20.4344 29.7325 18.9833 29.7325 17.0567V11.94H27.4937V7.94C28.0839 7.94 28.6499 7.70611 29.0673 7.28978C29.4846 6.87345 29.7191 6.30878 29.7191 5.72V4H35.0655V7.95H38.5574V11.95H35.0822V17C35.0529 17.4644 35.2077 17.9217 35.5133 18.2733C35.6631 18.4295 35.8447 18.552 36.0458 18.6325C36.2469 18.713 36.463 18.7496 36.6795 18.74C37.2608 18.752 37.8315 18.5844 38.3135 18.26L39.6434 22Z" fill="black"/>
<path d="M56.231 8.82012C57.3827 9.94234 57.9596 11.6379 57.9619 13.9068V22.6168H52.6155V14.7768C52.6155 12.6968 51.7801 11.6579 50.1093 11.6601C49.6943 11.6391 49.2797 11.7084 48.8943 11.8632C48.5088 12.0181 48.1618 12.2547 47.8772 12.5568C47.3225 13.1568 47.0452 14.0557 47.0452 15.2535V22.6168H41.6987V7.38679H46.7945V9.05345C47.3975 8.43161 48.1282 7.9472 48.9365 7.63345C49.7981 7.30023 50.7156 7.13393 51.6397 7.14345C53.5355 7.13901 55.0659 7.6979 56.231 8.82012Z" fill="black"/>
<path d="M77.0449 16.3502H65.9511C66.1462 17.0953 66.6119 17.7415 67.2576 18.1635C67.9916 18.6067 68.8396 18.8258 69.6969 18.7935C70.3431 18.8088 70.9866 18.7048 71.5949 18.4868C72.1888 18.249 72.737 17.9107 73.2155 17.4868L76.0325 20.4102C74.5488 22.0568 72.3802 22.8813 69.5265 22.8835C67.9015 22.9212 66.2901 22.5787 64.8216 21.8835C63.5209 21.2633 62.4278 20.2809 61.6742 19.0548C60.9206 17.8287 60.5387 16.4113 60.5746 14.9735C60.5531 13.5559 60.928 12.1604 61.6572 10.9435C62.3817 9.75222 63.4226 8.78425 64.6646 8.14684C65.9744 7.49455 67.4162 7.14918 68.8802 7.13705C70.3441 7.12492 71.7915 7.44635 73.112 8.07684C74.3338 8.68707 75.3553 9.63316 76.0558 10.8035C76.8034 12.0848 77.1794 13.5481 77.1418 15.0302C77.1318 15.0668 77.1017 15.5068 77.0449 16.3502ZM66.9235 11.6302C66.3577 12.1235 65.9839 12.7996 65.8675 13.5402H72.1195C72.0046 12.7991 71.6305 12.1226 71.0636 11.6302C70.4704 11.1742 69.7425 10.9269 68.9935 10.9269C68.2446 10.9269 67.5167 11.1742 66.9235 11.6302Z" fill="black"/>
<path d="M81.3824 22.4333C80.3332 22.2159 79.3258 21.8322 78.3984 21.2966L80.0024 17.63C80.7724 18.0969 81.6081 18.4463 82.4818 18.6666C83.4091 18.9159 84.365 19.0437 85.3254 19.0466C85.9522 19.0869 86.5804 18.9961 87.1699 18.78C87.3309 18.7219 87.47 18.616 87.5686 18.4765C87.6672 18.337 87.7205 18.1707 87.7213 18C87.7213 17.6666 87.5007 17.4266 87.053 17.2833C86.369 17.0979 85.672 16.9642 84.9679 16.8833C83.9163 16.7658 82.8752 16.5685 81.8536 16.2933C81.0094 16.0577 80.2457 15.5967 79.6448 14.96C79.0233 14.2933 78.7159 13.3866 78.7159 12.2066C78.7048 11.2667 79.0121 10.3506 79.588 9.60664C80.2559 8.78509 81.1382 8.16338 82.1376 7.80997C83.4206 7.33919 84.7808 7.11305 86.1474 7.14331C87.2542 7.14112 88.3583 7.25282 89.4422 7.47664C90.3967 7.65368 91.3184 7.97516 92.1755 8.42997L90.5683 12.0566C89.2259 11.3084 87.7119 10.9202 86.1742 10.93C85.5406 10.893 84.9066 10.9943 84.3163 11.2266C84.1518 11.2827 84.0076 11.3861 83.9017 11.5237C83.7959 11.6612 83.7332 11.8269 83.7215 12C83.7215 12.3533 83.9353 12.6033 84.3697 12.7433C85.0709 12.9411 85.7857 13.0871 86.5083 13.18C87.5677 13.3228 88.616 13.5378 89.646 13.8233C90.4716 14.0663 91.2162 14.5269 91.8013 15.1566C92.4095 15.8033 92.7169 16.7066 92.7169 17.8666C92.7241 18.7983 92.4156 19.7051 91.8414 20.44C91.1674 21.2638 90.2746 21.8818 89.2651 22.2233C87.9497 22.6833 86.5618 22.9024 85.1684 22.87C83.8937 22.8708 82.6232 22.7243 81.3824 22.4333Z" fill="black"/>
<path d="M96.7901 22.4331C95.7397 22.2161 94.7311 21.8323 93.8027 21.2964L95.41 17.6298C96.1789 18.0966 97.0135 18.446 97.8861 18.6664C98.8145 18.9157 99.7715 19.0434 100.733 19.0464C101.36 19.0861 101.988 18.9953 102.578 18.7798C102.738 18.7208 102.876 18.6145 102.974 18.4751C103.072 18.3358 103.125 18.1699 103.126 17.9998C103.126 17.6664 102.905 17.4264 102.457 17.2831C101.769 17.0945 101.068 16.9586 100.359 16.8764C99.3082 16.7592 98.2682 16.562 97.2478 16.2864C96.4027 16.0509 95.6379 15.5899 95.0358 14.9531C94.4187 14.2864 94.109 13.3687 94.1068 12.1998C94.0957 11.2599 94.403 10.3437 94.9789 9.59976C95.6476 8.77898 96.5296 8.15743 97.5285 7.8031C98.8115 7.33255 100.172 7.10641 101.538 7.13643C102.645 7.13408 103.749 7.24578 104.833 7.46976C105.788 7.64624 106.71 7.96776 107.566 8.4231L105.959 12.0498C104.618 11.3015 103.105 10.9133 101.568 10.9231C100.934 10.8863 100.299 10.9875 99.7072 11.2198C99.5442 11.2784 99.4021 11.3837 99.2987 11.5224C99.1953 11.6611 99.1352 11.8272 99.1258 11.9998C99.1258 12.3531 99.343 12.6031 99.774 12.7431C100.476 12.9408 101.192 13.0868 101.916 13.1798C102.971 13.3245 104.015 13.5405 105.04 13.8264C105.866 14.0685 106.611 14.5293 107.196 15.1598C107.808 15.8064 108.113 16.7098 108.111 17.8698C108.12 18.8011 107.812 19.708 107.239 20.4431C106.565 21.2669 105.672 21.8849 104.663 22.2264C103.346 22.6867 101.957 22.9058 100.563 22.8731C99.2923 22.8721 98.0263 22.7245 96.7901 22.4331Z" fill="black"/>
<path d="M3.37134 5.72667C4.95659 5.72667 6.2417 4.44471 6.2417 2.86333C6.2417 1.28196 4.95659 0 3.37134 0C1.78608 0 0.500977 1.28196 0.500977 2.86333C0.500977 4.44471 1.78608 5.72667 3.37134 5.72667Z" fill="black"/>
</svg>
