<svg width="24" height="24" viewBox="0 0 24 24" fill="none" xmlns="http://www.w3.org/2000/svg">
<path d="M19 9.99999C19 9.4477 19.4477 8.99999 20 8.99999C20.5128 8.99999 20.9355 9.38603 20.9933 9.88337L21 9.99999V15.3025C21 17.2836 20.7937 18.002 20.4064 18.7263C20.019 19.4506 19.4506 20.019 18.7263 20.4064C18.002 20.7937 17.2836 21 15.3025 21H8.69752C6.71637 21 5.99796 20.7937 5.27368 20.4064C4.5494 20.019 3.98098 19.4506 3.59363 18.7263C3.20628 18.002 3 17.2836 3 15.3025V8.69751C3 6.71636 3.20628 5.99795 3.59363 5.27367C3.98098 4.54939 4.5494 3.98097 5.27368 3.59362C5.99796 3.20627 6.71637 2.99999 8.69752 2.99999H14V4.99999H8.57459C7.06179 4.99999 6.6011 5.08895 6.13086 5.34044C5.78422 5.52583 5.52584 5.78421 5.34045 6.13085C5.10294 6.57496 5.01039 7.01056 5.00084 8.33201L5 15.4254C5 16.9382 5.08896 17.3989 5.34045 17.8691C5.52584 18.2158 5.78422 18.4742 6.13086 18.6595C6.6011 18.911 7.06179 19 8.57459 19H15.4254C16.9382 19 17.3989 18.911 17.8691 18.6595C18.2158 18.4742 18.4742 18.2158 18.6596 17.8691C18.911 17.3989 19 16.9382 19 15.4254V9.99999ZM19.3882 2.84182L21.1047 4.66092C18.6009 7.16469 14.2651 11.5005 13.4926 12.273C12.432 13.3336 10.4874 14.2175 10.1339 13.864C9.78033 13.5104 10.6642 11.5659 11.7249 10.5052L11.8679 10.3621C12.937 9.29311 17.0176 5.21243 19.3882 2.84182ZM14 2.99999C14.5523 2.99999 15 3.44771 15 3.99999C15 4.51283 14.614 4.9355 14.1166 4.99326L14 4.99999V2.99999ZM22.8618 1.13603C23.3921 1.66636 23.3921 2.37347 22.8618 2.9038L22.5797 3.18595C22.4674 3.29825 22.3272 3.43838 22.1636 3.602L20.3958 1.83423C20.764 1.46608 21.0132 1.21686 21.094 1.13603C21.6244 0.605699 22.3315 0.605699 22.8618 1.13603Z" fill="#00244A"/>
</svg>
